<?xml version="1.0" encoding="utf-8"?>
<!-- Generator: Adobe Illustrator 16.0.0, SVG Export Plug-In . SVG Version: 6.00 Build 0)  -->
<!DOCTYPE svg PUBLIC "-//W3C//DTD SVG 1.1//EN" "http://www.w3.org/Graphics/SVG/1.1/DTD/svg11.dtd">
<svg version="1.1" id="Calque_1" xmlns="http://www.w3.org/2000/svg" xmlns:xlink="http://www.w3.org/1999/xlink" x="0px" y="0px"
	 width="1190.551px" height="813.543px" viewBox="0 0 1190.551 813.543" enable-background="new 0 0 1190.551 813.543"
	 xml:space="preserve">
<g id="Calque_1_2_">
	<g id="non">
		<g id="gouttes" display="none">
			<g display="inline">
				<path fill="#BAE6F9" d="M493.602,486.005c0,0,0.452,1.58,0.7,3.16c0.059,0.396,0.229,0.79,0.242,1.16
					c-0.001,0.37-0.104,0.716-0.242,1.013c-0.251,0.592-0.7,0.987-0.7,0.987h-0.2c0,0-0.449-0.396-0.7-0.987
					c-0.138-0.297-0.231-0.643-0.242-1.013c0.021-0.37,0.188-0.771,0.242-1.16c0.248-1.58,0.7-3.16,0.7-3.16H493.602z"/>
			</g>
			<g display="inline">
				<path fill="#BAE6F9" d="M479.601,535.962c0,0,0.452,1.58,0.7,3.16c0.059,0.396,0.229,0.79,0.242,1.16
					c-0.001,0.37-0.104,0.716-0.242,1.013c-0.251,0.592-0.7,0.987-0.7,0.987h-0.2c0,0-0.449-0.396-0.7-0.987
					c-0.138-0.297-0.23-0.643-0.232-1.013c0.013-0.37,0.183-0.771,0.232-1.16c0.248-1.58,0.7-3.16,0.7-3.16H479.601z"/>
			</g>
			<g display="inline">
				<path fill="#BAE6F9" d="M696.74,522.708c0,0,0.104,2.167,0.267,5.416c0.151,3.25,0.279,7.583,0.438,11.916
					c0.067,2.167,0.229,4.334,0.242,6.365c-0.004,2.03-0.106,3.927-0.242,5.552c-0.251,3.249-0.7,5.416-0.7,5.416h-0.189
					c0,0-0.449-2.167-0.7-5.416c-0.137-1.625-0.238-3.521-0.242-5.552c0.021-2.031,0.175-4.198,0.242-6.365
					c0.154-4.333,0.281-8.666,0.438-11.916c0.154-3.249,0.266-5.416,0.266-5.416H696.74z"/>
			</g>
			<g display="inline">
				<path fill="#BAE6F9" d="M732.986,503.597c0,0,0.104,1.542,0.257,3.854c0.161,2.312,0.288,5.396,0.443,8.479
					c0.067,1.541,0.224,3.083,0.242,4.527c-0.004,1.445-0.106,2.795-0.242,3.951c-0.251,2.312-0.7,3.854-0.7,3.854h-0.199
					c0,0-0.439-1.542-0.69-3.854c-0.146-1.156-0.238-2.506-0.242-3.951c0.02-1.444,0.175-2.986,0.242-4.527
					c0.146-3.084,0.272-6.167,0.438-8.479c0.154-2.312,0.262-3.854,0.262-3.854H732.986z"/>
			</g>
			<g display="inline">
				<path fill="#BAE6F9" d="M703.115,539.333c0,0,0.104,2.061,0.267,5.15c0.151,3.09,0.279,7.211,0.438,11.331
					c0.067,2.061,0.229,4.11,0.242,6.052c-0.004,1.932-0.106,3.729-0.242,5.278c-0.251,3.091-0.7,5.146-0.7,5.146h-0.189
					c0,0-0.449-2.061-0.7-5.146c-0.137-1.554-0.238-3.354-0.242-5.278c0.021-1.938,0.175-3.991,0.242-6.052
					c0.154-4.12,0.281-8.241,0.438-11.331c0.154-3.1,0.266-5.15,0.266-5.15H703.115z"/>
			</g>
			<g display="inline">
				<path fill="#BAE6F9" d="M508.345,521.708c0,0,0.1,3.995,0.25,9.988c0.171,5.993,0.293,13.979,0.45,21.975
					c0.063,3.995,0.213,7.99,0.232,11.736c-0.021,1.873-0.015,3.684-0.064,5.396c-0.042,1.726-0.104,3.342-0.167,4.838
					c-0.255,5.993-0.699,9.988-0.7,9.988h-0.2c0,0-0.444-3.995-0.7-9.988c-0.062-1.494-0.126-3.111-0.167-4.838
					c-0.06-1.717-0.046-3.521-0.074-5.396c0.028-3.746,0.169-7.741,0.242-11.736c0.157-7.99,0.278-15.981,0.45-21.975
					c0.15-5.993,0.25-9.988,0.25-9.988H508.345z"/>
			</g>
			<g display="inline">
				<path fill="#BAE6F9" d="M411.136,612.961c0,0,3.584-0.101,8.959-0.25c5.375-0.172,12.543-0.293,19.711-0.45
					c3.583-0.073,7.167-0.214,10.521-0.241c1.688,0.027,3.312,0.021,4.854,0.074c1.54,0.041,2.996,0.104,4.34,0.167
					c5.375,0.255,8.959,0.699,8.959,0.7v0.199c0,0-3.584,0.438-8.959,0.7c-1.344,0.062-2.8,0.126-4.34,0.167
					c-1.54,0.061-3.164,0.047-4.854,0.064c-3.354-0.021-6.938-0.168-10.521-0.232c-7.168-0.156-14.335-0.277-19.711-0.449
					c-5.375-0.149-8.959-0.25-8.959-0.25V612.961z"/>
			</g>
			<g display="inline">
				<path fill="#BAE6F9" d="M458.49,655.786c0,0,3.584-0.104,8.959-0.25c5.385-0.172,12.553-0.293,19.721-0.45
					c3.584-0.073,7.167-0.214,10.521-0.241c1.688,0.027,3.306,0.021,4.844,0.074c1.54,0.041,2.996,0.098,4.35,0.167
					c5.375,0.255,8.959,0.699,8.959,0.7v0.199c0,0.001-3.584,0.438-8.959,0.69c-1.354,0.069-2.81,0.126-4.35,0.167
					c-1.536,0.062-3.154,0.047-4.844,0.074c-3.354-0.027-6.938-0.168-10.521-0.241c-7.167-0.148-14.335-0.271-19.72-0.45
					c-5.375-0.146-8.96-0.25-8.96-0.25V655.786L458.49,655.786z"/>
			</g>
			<g display="inline">
				<path fill="#BAE6F9" d="M514.72,538.333c0,0,0.103,1.458,0.256,3.646c0.162,2.188,0.288,5.104,0.444,8.021
					c0.062,1.457,0.223,2.915,0.232,4.282c-0.004,1.367-0.104,2.643-0.232,3.729c-0.261,2.188-0.7,3.646-0.7,3.646h-0.2
					c0,0-0.449-1.458-0.7-3.646c-0.135-1.094-0.238-2.36-0.242-3.729c0.021-1.367,0.175-2.825,0.242-4.282
					c0.156-2.916,0.282-5.832,0.444-8.021c0.146-2.188,0.256-3.646,0.256-3.646H514.72z"/>
			</g>
			<g display="inline">
				<path fill="#BAE6F9" d="M508.345,558.066c0,0,0.452,2.647,0.7,5.312c0.059,0.665,0.229,1.329,0.232,1.952
					c-0.001,0.622-0.104,1.203-0.232,1.702c-0.251,0.996-0.7,1.66-0.7,1.66h-0.2c0,0-0.449-0.664-0.7-1.66
					c-0.138-0.499-0.24-1.08-0.242-1.702c0.021-0.623,0.188-1.287,0.242-1.952c0.248-2.656,0.7-5.312,0.7-5.312H508.345z"/>
			</g>
			<g display="inline">
				<path fill="#BAE6F9" d="M484.814,607.236c0,0-2.657,0.452-5.312,0.69c-0.664,0.062-1.329,0.229-1.951,0.242
					c-0.623-0.002-1.204-0.104-1.702-0.242c-0.997-0.25-1.661-0.69-1.661-0.69v-0.199c0,0,0.664-0.449,1.661-0.7
					c0.498-0.138,1.08-0.24,1.702-0.242c0.623,0.021,1.287,0.188,1.951,0.242c2.647,0.248,5.312,0.699,5.312,0.699V607.236z"/>
			</g>
			<g display="inline">
				<path fill="#BAE6F9" d="M514.72,587.276c0,0,0.452,2.647,0.7,5.312c0.059,0.664,0.229,1.328,0.232,1.951
					c-0.002,0.622-0.104,1.203-0.232,1.701c-0.251,0.997-0.7,1.661-0.7,1.661h-0.2c0,0-0.449-0.664-0.7-1.661
					c-0.138-0.498-0.24-1.079-0.242-1.701c0.021-0.623,0.188-1.287,0.242-1.951c0.248-2.657,0.7-5.312,0.7-5.312H514.72z"/>
			</g>
			<g display="inline">
				<path fill="#BAE6F9" d="M507.345,487.012c0,0,0.452,2.656,0.7,5.313c0.059,0.664,0.229,1.328,0.232,1.951
					c-0.001,0.622-0.104,1.204-0.232,1.692c-0.251,0.996-0.7,1.66-0.7,1.66h-0.2c0,0-0.449-0.664-0.7-1.66
					c-0.138-0.497-0.24-1.07-0.242-1.692c0.021-0.623,0.188-1.287,0.242-1.951c0.248-2.657,0.7-5.313,0.7-5.313H507.345z"/>
			</g>
			<g display="inline">
				<path fill="#BAE6F9" d="M511.712,454.731c0,0,0.442,2.647,0.69,5.312c0.062,0.664,0.229,1.328,0.242,1.951
					c-0.001,0.623-0.104,1.204-0.242,1.702c-0.251,0.997-0.69,1.661-0.69,1.661h-0.2c0,0-0.449-0.664-0.7-1.661
					c-0.138-0.498-0.241-1.079-0.242-1.702c0.013-0.623,0.188-1.287,0.242-1.951c0.248-2.657,0.7-5.312,0.7-5.312H511.712z"/>
			</g>
			<g display="inline">
				<path fill="#BAE6F9" d="M508.671,465.36c0,0,0.442,2.646,0.69,5.312c0.062,0.664,0.229,1.328,0.242,1.951
					c-0.001,0.622-0.104,1.204-0.242,1.702c-0.251,0.996-0.69,1.66-0.69,1.66h-0.2c0,0-0.449-0.664-0.7-1.66
					c-0.138-0.498-0.241-1.08-0.242-1.702c0.013-0.623,0.188-1.287,0.242-1.951c0.248-2.657,0.7-5.312,0.7-5.312H508.671z"/>
			</g>
			<g display="inline">
				<path fill="#BAE6F9" d="M667.023,457.979c0.001,0,0.452,2.656,0.7,5.313c0.059,0.664,0.229,1.328,0.242,1.951
					c-0.002,0.622-0.104,1.204-0.242,1.702c-0.251,0.996-0.7,1.66-0.7,1.66h-0.199c0,0-0.439-0.664-0.7-1.66
					c-0.138-0.498-0.23-1.08-0.232-1.702c0.014-0.623,0.184-1.287,0.232-1.951c0.248-2.657,0.699-5.313,0.7-5.313H667.023z"/>
			</g>
			<g display="inline">
				<path fill="#BAE6F9" d="M660.648,475.319c0.001,0,0.452,2.647,0.7,5.312c0.059,0.664,0.229,1.328,0.242,1.951
					c-0.002,0.623-0.104,1.204-0.242,1.702c-0.251,0.997-0.7,1.661-0.7,1.661h-0.199c0,0-0.439-0.664-0.7-1.661
					c-0.138-0.498-0.23-1.079-0.232-1.702c0.014-0.623,0.184-1.287,0.232-1.951c0.248-2.657,0.699-5.312,0.7-5.312H660.648z"/>
			</g>
			<g display="inline">
				<path fill="#BAE6F9" d="M703.115,492.326c0.001,0,0.452,2.657,0.7,5.312c0.062,0.665,0.229,1.329,0.242,1.952
					c-0.002,0.622-0.104,1.203-0.242,1.702c-0.251,0.996-0.7,1.66-0.7,1.66h-0.189c0,0-0.449-0.664-0.7-1.66
					c-0.139-0.499-0.24-1.08-0.242-1.702c0.014-0.623,0.186-1.287,0.242-1.952c0.248-2.646,0.699-5.312,0.7-5.312H703.115z"/>
			</g>
			<g display="inline">
				<path fill="#BAE6F9" d="M696.74,480.633c0.001,0,0.452,2.656,0.7,5.313c0.062,0.664,0.229,1.328,0.242,1.95
					c-0.002,0.613-0.104,1.195-0.242,1.693c-0.251,0.996-0.7,1.66-0.7,1.66h-0.189c0,0-0.449-0.664-0.7-1.66
					c-0.139-0.498-0.24-1.08-0.242-1.693c0.014-0.622,0.186-1.286,0.242-1.95c0.248-2.657,0.699-5.313,0.7-5.313H696.74z"/>
			</g>
			<g display="inline">
				<path fill="#BAE6F9" d="M732.986,457.019c0.001,0,0.452,2.657,0.7,5.313c0.059,0.665,0.229,1.329,0.242,1.952
					c-0.002,0.622-0.104,1.203-0.242,1.702c-0.251,0.996-0.7,1.66-0.7,1.66h-0.199c0,0-0.439-0.664-0.69-1.66
					c-0.146-0.499-0.24-1.08-0.242-1.702c0.014-0.623,0.184-1.287,0.242-1.952c0.248-2.656,0.689-5.313,0.69-5.313H732.986z"/>
			</g>
			<g display="inline">
				<path fill="#BAE6F9" d="M547.487,458.981c0,0,0.452,2.647,0.7,5.312c0.059,0.664,0.229,1.328,0.242,1.951
					c-0.002,0.622-0.104,1.203-0.242,1.702c-0.251,0.996-0.7,1.66-0.7,1.66h-0.2c0,0-0.439-0.664-0.69-1.66
					c-0.146-0.499-0.24-1.08-0.242-1.702c0.014-0.623,0.184-1.287,0.242-1.951c0.247-2.657,0.69-5.312,0.69-5.312H547.487z"/>
			</g>
			<g display="inline">
				<path fill="#BAE6F9" d="M549.154,481.698c0,0,0.452,2.657,0.7,5.312c0.059,0.664,0.229,1.328,0.242,1.951
					c-0.002,0.622-0.104,1.203-0.242,1.702c-0.251,0.996-0.7,1.66-0.7,1.66h-0.2c0,0-0.439-0.664-0.69-1.66
					c-0.146-0.499-0.24-1.08-0.242-1.702c0.014-0.623,0.184-1.287,0.242-1.951c0.248-2.647,0.69-5.312,0.69-5.312H549.154z"/>
			</g>
			<g display="inline">
				<path fill="#BAE6F9" d="M542.779,492.326c0,0,0.452,2.657,0.7,5.312c0.059,0.665,0.229,1.329,0.242,1.952
					c-0.002,0.622-0.104,1.203-0.242,1.702c-0.251,0.996-0.7,1.66-0.7,1.66h-0.2c0,0-0.439-0.664-0.69-1.66
					c-0.146-0.499-0.24-1.08-0.242-1.702c0.014-0.623,0.184-1.287,0.242-1.952c0.248-2.646,0.69-5.312,0.69-5.312H542.779z"/>
			</g>
			<g display="inline">
				<path fill="#BAE6F9" d="M542.779,471.739c0,0,0.452,2.646,0.7,5.312c0.059,0.664,0.229,1.328,0.242,1.951
					c-0.002,0.622-0.104,1.204-0.242,1.702c-0.251,0.996-0.7,1.66-0.7,1.66h-0.2c0,0-0.439-0.664-0.69-1.66
					c-0.146-0.498-0.24-1.08-0.242-1.702c0.014-0.623,0.184-1.287,0.242-1.951c0.248-2.657,0.69-5.312,0.69-5.312H542.779z"/>
			</g>
			<g display="inline">
				<path fill="#BAE6F9" d="M543.573,584.748c0,0-0.442-1.595-0.69-3.189c-0.062-0.396-0.229-0.798-0.242-1.171
					c0.002-0.374,0.104-0.723,0.242-1.021c0.251-0.604,0.69-0.997,0.69-0.997h0.2c0,0,0.449,0.396,0.7,0.997
					c0.138,0.299,0.24,0.646,0.242,1.021c-0.021,0.373-0.188,0.772-0.242,1.171c-0.248,1.604-0.7,3.189-0.7,3.189H543.573z"/>
			</g>
			<g display="inline">
				<path fill="#BAE6F9" d="M550.154,567.359c0,0,0.452,2.647,0.7,5.312c0.059,0.665,0.229,1.329,0.242,1.952
					c-0.002,0.622-0.104,1.203-0.242,1.702c-0.251,0.996-0.7,1.66-0.7,1.66h-0.2c0,0-0.439-0.664-0.69-1.66
					c-0.146-0.499-0.24-1.08-0.242-1.702c0.014-0.623,0.184-1.287,0.242-1.952c0.248-2.656,0.69-5.312,0.69-5.312H550.154z"/>
			</g>
			<g display="inline">
				<path fill="#BAE6F9" d="M658.921,663.737c0,0,2.647-0.452,5.312-0.7c0.664-0.062,1.328-0.229,1.951-0.242
					c0.622,0.002,1.203,0.104,1.701,0.242c0.997,0.251,1.661,0.7,1.661,0.7v0.189c0,0-0.664,0.449-1.661,0.7
					c-0.498,0.146-1.079,0.24-1.701,0.242c-0.623-0.014-1.287-0.188-1.951-0.242c-2.657-0.248-5.312-0.689-5.312-0.7V663.737z"/>
			</g>
			<g display="inline">
				<path fill="#BAE6F9" d="M450.893,555.914c0,0.001-0.093,0.452-0.188,0.7c-0.021,0.059-0.047,0.229-0.062,0.242
					c-0.021-0.003-0.042-0.104-0.062-0.242c-0.025-0.251-0.058-0.7-0.058-0.7v-0.199c0,0,0.021-0.449,0.058-0.7
					c0.021-0.138,0.038-0.23,0.062-0.232c0.021,0.014,0.045,0.184,0.062,0.232c0.103,0.248,0.188,0.699,0.188,0.7V555.914z"/>
			</g>
			<g display="inline">
				<path fill="#BAE6F9" d="M387.977,608.893c0-0.001,2.657-0.442,5.312-0.69c0.664-0.062,1.328-0.229,1.951-0.242
					c0.623,0.002,1.204,0.104,1.702,0.242c0.997,0.251,1.661,0.69,1.661,0.69v0.199c0,0-0.664,0.449-1.661,0.7
					c-0.498,0.138-1.08,0.24-1.702,0.242c-0.623-0.021-1.287-0.188-1.951-0.242c-2.647-0.248-5.312-0.699-5.312-0.7V608.893z"/>
			</g>
			<g display="inline">
				<path fill="#BAE6F9" d="M710.615,626.245c0,0,2.657-0.452,5.313-0.7c0.665-0.059,1.329-0.229,1.952-0.242
					c0.622,0.002,1.202,0.104,1.702,0.242c0.987,0.251,1.65,0.7,1.65,0.7v0.199c0,0-0.663,0.439-1.65,0.69
					c-0.5,0.146-1.08,0.24-1.702,0.242c-0.623-0.014-1.287-0.184-1.952-0.242c-2.656-0.247-5.313-0.689-5.313-0.689V626.245z"/>
			</g>
			<g display="inline">
				<path fill="#BAE6F9" d="M647.573,670.775c0,0,2.042-0.104,5.104-0.267c3.062-0.151,7.146-0.278,11.229-0.438
					c2.042-0.066,4.084-0.229,5.998-0.242c1.914,0.004,3.701,0.106,5.232,0.242c3.062,0.251,5.104,0.7,5.104,0.7v0.189
					c0,0-2.042,0.449-5.104,0.7c-1.531,0.135-3.318,0.238-5.232,0.242c-1.914-0.021-3.956-0.177-5.998-0.242
					c-4.084-0.154-8.167-0.281-11.229-0.438c-3.062-0.152-5.104-0.264-5.104-0.264V670.775z"/>
			</g>
			<g display="inline">
				<path fill="#BAE6F9" d="M679.99,621.054c0,0,2.042-0.103,5.104-0.257c3.062-0.161,7.146-0.288,11.229-0.443
					c2.042-0.062,4.084-0.224,5.998-0.232c1.914,0.004,3.701,0.104,5.232,0.232c3.062,0.261,5.104,0.7,5.104,0.7v0.199
					c0,0-2.042,0.449-5.104,0.7c-1.531,0.135-3.318,0.238-5.232,0.242c-1.914-0.021-3.956-0.186-5.998-0.242
					c-4.084-0.155-8.167-0.282-11.229-0.443c-3.062-0.146-5.104-0.257-5.104-0.257V621.054z"/>
			</g>
			<g display="inline">
				<path fill="#BAE6F9" d="M543.779,615.182c0,0,0.104,1.29,0.256,3.229c0.162,1.935,0.288,4.514,0.444,7.093
					c0.067,1.29,0.223,2.58,0.242,3.789c-0.004,1.209-0.107,2.337-0.242,3.305c-0.251,1.938-0.7,3.229-0.7,3.229h-0.2
					c0,0-0.439-1.29-0.69-3.229c-0.145-0.968-0.238-2.096-0.242-3.305c0.019-1.209,0.175-2.499,0.242-3.789
					c0.146-2.579,0.272-5.158,0.438-7.093c0.153-1.938,0.256-3.229,0.256-3.229H543.779z"/>
			</g>
			<g display="inline">
				<path fill="#BAE6F9" d="M546.433,535.259c0,0,0.1,2.19,0.25,5.479c0.171,3.275,0.293,7.664,0.45,12.046
					c0.063,2.188,0.213,4.38,0.242,6.433c-0.014,2.053-0.106,3.97-0.242,5.612c-0.255,3.284-0.699,5.475-0.699,5.475h-0.201
					c0,0-0.443-2.188-0.7-5.475c-0.135-1.646-0.229-3.562-0.241-5.612c0.027-2.053,0.178-4.243,0.241-6.433
					c0.157-4.381,0.278-8.77,0.45-12.046c0.15-3.284,0.25-5.479,0.25-5.479H546.433z"/>
			</g>
			<g display="inline">
				<path fill="#BAE6F9" d="M550.154,597.018c0,0,0.452,1.24,0.7,2.479c0.059,0.31,0.229,0.62,0.242,0.91
					c-0.002,0.291-0.104,0.562-0.242,0.795c-0.251,0.465-0.7,0.771-0.7,0.771h-0.2c0,0-0.439-0.31-0.69-0.771
					c-0.146-0.232-0.24-0.504-0.242-0.795c0.014-0.29,0.184-0.604,0.242-0.91c0.248-1.239,0.69-2.479,0.69-2.479H550.154z"/>
			</g>
			<g display="inline">
				<path fill="#BAE6F9" d="M626.74,496.472c0.001,0,0.452,1.239,0.7,2.479c0.062,0.31,0.229,0.62,0.242,0.91
					c-0.002,0.291-0.104,0.562-0.242,0.795c-0.251,0.465-0.7,0.771-0.7,0.771h-0.189c0,0-0.449-0.31-0.7-0.771
					c-0.139-0.232-0.24-0.504-0.242-0.795c0.014-0.29,0.186-0.604,0.242-0.91c0.248-1.24,0.699-2.479,0.7-2.479H626.74z"/>
			</g>
			<g display="inline">
				<path fill="#BAE6F9" d="M660.648,495.16c0.001,0,0.452,1.239,0.7,2.479c0.059,0.312,0.229,0.62,0.242,0.91
					c-0.002,0.291-0.104,0.562-0.242,0.795c-0.251,0.465-0.7,0.774-0.7,0.774h-0.199c0,0-0.439-0.312-0.7-0.774
					c-0.138-0.229-0.23-0.504-0.232-0.795c0.014-0.29,0.184-0.601,0.232-0.91c0.248-1.23,0.699-2.479,0.7-2.479H660.648z"/>
			</g>
			<g display="inline">
				<path fill="#BAE6F9" d="M631.591,526.204c0,0,0.101,4.646,0.25,11.617c0.172,6.97,0.293,16.264,0.44,25.557
					c0.1,4.646,0.209,9.293,0.241,13.649c-0.021,2.179-0.014,4.274-0.065,6.271c-0.041,1.997-0.104,3.895-0.166,5.627
					c-0.062,1.743-0.162,3.35-0.229,4.765c-0.066,1.41-0.139,2.646-0.221,3.668c-0.146,2.022-0.252,3.188-0.252,3.188h-0.199
					c0,0-0.115-1.162-0.252-3.188c-0.082-1.021-0.155-2.252-0.222-3.668c-0.065-1.416-0.18-3.021-0.229-4.765
					c-0.069-1.732-0.126-3.63-0.167-5.627c-0.061-1.996-0.047-4.102-0.074-6.271c0.033-4.356,0.151-9.003,0.241-13.649
					c0.157-9.293,0.278-18.587,0.45-25.557c0.146-6.979,0.25-11.617,0.25-11.617H631.591z"/>
			</g>
			<g display="inline">
				<path fill="#BAE6F9" d="M625.016,589.542c0,0-0.104-1.462-0.257-3.654c-0.161-2.188-0.288-5.105-0.443-8.039
					c-0.067-1.461-0.224-2.923-0.242-4.293c0.004-1.37,0.106-2.646,0.242-3.745c0.251-2.188,0.7-3.646,0.7-3.646h0.199
					c0,0,0.439,1.462,0.69,3.646c0.146,1.104,0.238,2.375,0.242,3.745c-0.019,1.37-0.175,2.832-0.242,4.293
					c-0.146,2.934-0.272,5.854-0.438,8.039c-0.154,2.192-0.257,3.654-0.257,3.654H625.016z"/>
			</g>
			<g display="inline">
				<path fill="#BAE6F9" d="M472.323,482.366c0,0-0.103-1.462-0.256-3.654c-0.162-2.188-0.288-5.115-0.438-8.038
					c-0.067-1.462-0.229-2.923-0.242-4.293c0.003-1.37,0.104-2.646,0.242-3.745c0.251-2.188,0.69-3.646,0.69-3.646h0.2
					c0,0,0.449,1.462,0.7,3.646c0.135,1.104,0.238,2.375,0.242,3.745c-0.021,1.37-0.177,2.831-0.242,4.293
					c-0.156,2.923-0.282,5.854-0.444,8.038c-0.146,2.192-0.256,3.654-0.256,3.654H472.323z"/>
			</g>
			<g display="inline">
				<path fill="#BAE6F9" d="M632.184,504.018c0,0-0.104-1.462-0.257-3.646c-0.161-2.191-0.288-5.115-0.443-8.038
					c-0.067-1.462-0.224-2.923-0.242-4.293c0.004-1.37,0.106-2.649,0.242-3.745c0.251-2.189,0.7-3.654,0.7-3.654h0.199
					c0,0,0.439,1.465,0.69,3.654c0.146,1.096,0.238,2.375,0.242,3.745c-0.019,1.37-0.175,2.831-0.242,4.293
					c-0.146,2.923-0.272,5.847-0.438,8.038c-0.154,2.188-0.257,3.646-0.257,3.646H632.184z"/>
			</g>
			<g display="inline">
				<path fill="#BAE6F9" d="M700.902,477.948c0,0-0.103-1.462-0.257-3.654c-0.161-2.191-0.288-5.115-0.443-8.038
					c-0.062-1.462-0.224-2.923-0.242-4.293c0.014-1.37,0.106-2.646,0.242-3.745c0.251-2.188,0.7-3.646,0.7-3.646h0.199
					c0,0,0.449,1.462,0.7,3.646c0.136,1.104,0.229,2.375,0.242,3.745c-0.021,1.37-0.185,2.831-0.242,4.293
					c-0.155,2.923-0.282,5.848-0.443,8.038c-0.154,2.192-0.257,3.654-0.257,3.654H700.902z"/>
			</g>
			<g display="inline">
				<path fill="#BAE6F9" d="M737.55,498.706c0,0-0.104-1.462-0.259-3.654c-0.159-2.188-0.286-5.114-0.441-8.039
					c-0.067-1.462-0.225-2.924-0.242-4.294c0.004-1.37,0.106-2.646,0.242-3.745c0.251-2.188,0.7-3.646,0.7-3.646h0.189
					c0,0,0.449,1.462,0.7,3.646c0.146,1.104,0.238,2.375,0.242,3.745c-0.02,1.37-0.175,2.832-0.242,4.294
					c-0.146,2.925-0.273,5.854-0.438,8.039c-0.154,2.192-0.266,3.654-0.266,3.654H737.55z"/>
			</g>
			<g display="inline">
				<path fill="#BAE6F9" d="M631.591,568.562c0,0,0.103,1.728,0.257,4.312c0.161,2.591,0.288,6.045,0.438,9.499
					c0.067,1.729,0.229,3.454,0.242,5.073c-0.004,1.619-0.104,3.131-0.242,4.426c-0.25,2.591-0.69,4.318-0.69,4.318h-0.199
					c0,0-0.449-1.729-0.7-4.318c-0.136-1.295-0.234-2.807-0.242-4.426c0.021-1.619,0.184-3.354,0.242-5.073
					c0.155-3.454,0.282-6.908,0.443-9.499c0.146-2.591,0.257-4.312,0.257-4.312H631.591z"/>
			</g>
			<g display="inline">
				<path fill="#BAE6F9" d="M631.591,611.217c0,0,0.103,1.729,0.257,4.318c0.161,2.59,0.288,6.045,0.438,9.499
					c0.067,1.728,0.229,3.454,0.242,5.073c-0.004,1.609-0.104,3.131-0.242,4.426c-0.25,2.591-0.69,4.312-0.69,4.312h-0.199
					c0,0-0.449-1.728-0.7-4.312c-0.136-1.295-0.234-2.812-0.242-4.426c0.021-1.619,0.184-3.354,0.242-5.073
					c0.155-3.454,0.282-6.909,0.443-9.499c0.146-2.591,0.257-4.318,0.257-4.318H631.591z"/>
			</g>
			<g display="inline">
				<path fill="#BAE6F9" d="M627.378,636.061c0,0,0.103,1.729,0.257,4.318c0.161,2.59,0.288,6.045,0.438,9.499
					c0.067,1.729,0.229,3.454,0.242,5.073c-0.004,1.619-0.104,3.131-0.242,4.426c-0.251,2.591-0.69,4.318-0.69,4.318h-0.199
					c0,0-0.449-1.729-0.7-4.318c-0.136-1.295-0.238-2.807-0.242-4.426c0.021-1.619,0.176-3.346,0.242-5.073
					c0.155-3.454,0.282-6.909,0.443-9.499c0.146-2.591,0.257-4.318,0.257-4.318H627.378z"/>
			</g>
			<g display="inline">
				<path fill="#BAE6F9" d="M625.216,585.188c0,0,0.103,1.729,0.257,4.317c0.161,2.591,0.288,6.045,0.438,9.499
					c0.067,1.729,0.229,3.454,0.242,5.073c-0.004,1.619-0.104,3.131-0.242,4.426c-0.25,2.591-0.69,4.318-0.69,4.318h-0.199
					c0,0-0.449-1.729-0.7-4.318c-0.136-1.295-0.234-2.807-0.242-4.426c0.021-1.619,0.184-3.346,0.242-5.073
					c0.155-3.454,0.282-6.908,0.443-9.499c0.146-2.591,0.257-4.317,0.257-4.317H625.216z"/>
			</g>
			<g display="inline">
				<path fill="#BAE6F9" d="M667.023,526.204c0,0,0.101,4.646,0.25,11.617c0.172,6.97,0.293,16.264,0.45,25.557
					c0.09,4.646,0.208,9.293,0.241,13.649c-0.027,2.179-0.021,4.274-0.074,6.271c-0.041,1.997-0.098,3.895-0.167,5.627
					c-0.057,1.743-0.162,3.35-0.229,4.765c-0.062,1.41-0.139,2.646-0.221,3.668c-0.137,2.022-0.252,3.188-0.252,3.188h-0.199
					c0,0-0.105-1.162-0.252-3.188c-0.082-1.021-0.146-2.252-0.221-3.668s-0.171-3.021-0.229-4.765
					c-0.062-1.732-0.126-3.63-0.167-5.627c-0.061-1.996-0.047-4.102-0.064-6.271c0.024-4.356,0.146-9.003,0.231-13.649
					c0.157-9.293,0.278-18.587,0.45-25.557c0.149-6.979,0.25-11.617,0.25-11.617H667.023z"/>
			</g>
			<g display="inline">
				<path fill="#BAE6F9" d="M660.448,589.542c0,0-0.103-1.462-0.257-3.654c-0.161-2.188-0.288-5.105-0.443-8.039
					c-0.062-1.461-0.224-2.923-0.232-4.293c0.004-1.37,0.104-2.646,0.232-3.745c0.251-2.188,0.7-3.646,0.7-3.646h0.199
					c0,0,0.449,1.462,0.7,3.646c0.136,1.104,0.237,2.375,0.242,3.745c-0.021,1.37-0.185,2.832-0.242,4.293
					c-0.155,2.934-0.282,5.854-0.443,8.039c-0.153,2.192-0.257,3.654-0.257,3.654H660.448z"/>
			</g>
			<g display="inline">
				<path fill="#BAE6F9" d="M667.023,568.562c0,0,0.104,1.728,0.257,4.312c0.161,2.591,0.288,6.045,0.443,9.499
					c0.062,1.729,0.224,3.454,0.242,5.073c-0.004,1.619-0.106,3.131-0.242,4.426c-0.251,2.591-0.7,4.318-0.7,4.318h-0.199
					c0,0-0.439-1.729-0.7-4.318c-0.136-1.295-0.229-2.807-0.232-4.426c0.019-1.619,0.175-3.354,0.232-5.073
					c0.155-3.454,0.282-6.908,0.443-9.499c0.154-2.591,0.257-4.312,0.257-4.312H667.023z"/>
			</g>
			<g display="inline">
				<path fill="#BAE6F9" d="M660.648,585.188c0,0,0.104,1.834,0.257,4.584c0.161,2.75,0.288,6.416,0.443,10.094
					c0.062,1.833,0.224,3.667,0.242,5.386c-0.004,1.719-0.106,3.323-0.242,4.698c-0.251,2.75-0.7,4.584-0.7,4.584h-0.199
					c0,0-0.439-1.834-0.7-4.584c-0.136-1.375-0.229-2.979-0.232-4.698c0.019-1.719,0.175-3.553,0.232-5.386
					c0.155-3.678,0.282-7.344,0.443-10.094c0.154-2.75,0.257-4.584,0.257-4.584H660.648z"/>
			</g>
			<g display="inline">
				<path fill="#BAE6F9" d="M671.479,596.542c0,0,0.104,1.834,0.257,4.584c0.161,2.75,0.288,6.417,0.443,10.085
					c0.062,1.833,0.224,3.667,0.242,5.386c-0.005,1.729-0.107,3.323-0.242,4.698c-0.251,2.75-0.7,4.584-0.7,4.584h-0.199
					c0,0-0.449-1.834-0.7-4.584c-0.135-1.375-0.229-2.979-0.232-4.698c0.019-1.719,0.176-3.553,0.232-5.386
					c0.155-3.668,0.282-7.335,0.443-10.085c0.154-2.75,0.257-4.584,0.257-4.584H671.479z"/>
			</g>
			<g display="inline">
				<path fill="#BAE6F9" d="M468.698,520.732c0,0,0.104,1.728,0.256,4.312c0.162,2.591,0.288,6.045,0.444,9.499
					c0.067,1.729,0.223,3.454,0.242,5.073c-0.003,1.619-0.106,3.131-0.242,4.426c-0.251,2.591-0.7,4.318-0.7,4.318h-0.2
					c0,0-0.439-1.729-0.69-4.318c-0.145-1.295-0.238-2.807-0.242-4.426c0.02-1.619,0.175-3.347,0.242-5.073
					c0.146-3.454,0.272-6.908,0.438-9.499c0.153-2.591,0.258-4.312,0.258-4.312H468.698z"/>
			</g>
			<g display="inline">
				<path fill="#BAE6F9" d="M656.347,616.567c0,0,0.104,0.854,0.382,2.09c0.283,1.229,0.758,2.853,1.52,4.241
					c0.188,0.352,0.437,0.646,0.655,0.94c0.271,0.271,0.479,0.559,0.729,0.771c0.211,0.262,0.438,0.455,0.646,0.674
					c0.204,0.229,0.451,0.361,0.653,0.562c0.22,0.164,0.449,0.283,0.65,0.437c0.188,0.161,0.396,0.211,0.562,0.312
					c0.335,0.172,0.548,0.312,0.548,0.312v0.189c0,0-0.212,0.104-0.614,0.205c-0.2,0.042-0.469,0.146-0.763,0.115
					c-0.292-0.017-0.646,0-1.013-0.092c-0.351-0.121-0.782-0.202-1.146-0.445c-0.382-0.221-0.771-0.479-1.062-0.847
					c-0.338-0.338-0.558-0.763-0.783-1.18c-0.188-0.438-0.388-0.862-0.532-1.308c-0.147-0.434-0.291-0.859-0.388-1.302
					c-0.124-0.427-0.164-0.854-0.239-1.269c-0.039-0.414-0.103-0.812-0.104-1.188c-0.021-0.377-0.032-0.729-0.027-1.061
					c-0.01-1.312,0.126-2.164,0.126-2.164L656.347,616.567L656.347,616.567z"/>
			</g>
			<g display="inline">
				<path fill="#BAE6F9" d="M695.014,569.624c0,0,0.104,0.854,0.383,2.09c0.283,1.229,0.757,2.854,1.519,4.241
					c0.188,0.352,0.437,0.656,0.655,0.95c0.262,0.264,0.479,0.549,0.729,0.764c0.211,0.262,0.438,0.455,0.646,0.674
					c0.203,0.229,0.45,0.361,0.652,0.562c0.22,0.164,0.449,0.283,0.646,0.427c0.191,0.161,0.4,0.211,0.563,0.312
					c0.335,0.172,0.548,0.309,0.548,0.309v0.199c0,0-0.212,0.1-0.62,0.205c-0.198,0.042-0.463,0.14-0.757,0.105
					c-0.292-0.017-0.646,0-1.013-0.092c-0.353-0.121-0.782-0.202-1.146-0.438c-0.382-0.229-0.769-0.488-1.062-0.854
					c-0.339-0.338-0.562-0.763-0.783-1.18c-0.188-0.438-0.39-0.862-0.532-1.298c-0.15-0.438-0.291-0.869-0.388-1.309
					c-0.124-0.43-0.164-0.854-0.239-1.271c-0.04-0.414-0.104-0.812-0.104-1.188c-0.021-0.378-0.03-0.729-0.025-1.062
					c-0.01-1.312,0.126-2.164,0.126-2.164L695.014,569.624z"/>
			</g>
			<g display="inline">
				<path fill="#BAE6F9" d="M619.382,660.834c0,0,0.104,0.855,0.383,2.09c0.283,1.229,0.757,2.854,1.519,4.241
					c0.188,0.352,0.436,0.656,0.655,0.95c0.262,0.264,0.479,0.549,0.726,0.764c0.221,0.262,0.445,0.455,0.655,0.674
					c0.203,0.229,0.45,0.361,0.652,0.562c0.22,0.164,0.449,0.283,0.646,0.427c0.197,0.161,0.406,0.211,0.569,0.312
					c0.335,0.172,0.548,0.309,0.548,0.309v0.199c0,0-0.212,0.1-0.62,0.205c-0.204,0.042-0.463,0.14-0.757,0.105
					c-0.292-0.017-0.646,0-1.013-0.092c-0.354-0.121-0.782-0.202-1.146-0.438c-0.379-0.229-0.766-0.488-1.062-0.854
					c-0.338-0.338-0.562-0.763-0.783-1.18c-0.189-0.438-0.388-0.862-0.532-1.298c-0.157-0.438-0.291-0.869-0.388-1.31
					c-0.124-0.429-0.164-0.854-0.239-1.271c-0.04-0.414-0.103-0.812-0.112-1.188c-0.019-0.378-0.022-0.729-0.021-1.062
					c-0.01-1.312,0.126-2.164,0.126-2.164L619.382,660.834z"/>
			</g>
			<g display="inline">
				<path fill="#BAE6F9" d="M635.896,655.622c0,0,0.104,0.854,0.382,2.09c0.283,1.229,0.758,2.854,1.521,4.241
					c0.181,0.352,0.427,0.656,0.646,0.95c0.271,0.264,0.479,0.549,0.729,0.764c0.212,0.262,0.438,0.456,0.651,0.674
					c0.197,0.229,0.444,0.361,0.647,0.562c0.22,0.164,0.449,0.283,0.647,0.427c0.194,0.161,0.403,0.211,0.563,0.312
					c0.335,0.172,0.552,0.309,0.552,0.309v0.199c0,0-0.212,0.1-0.618,0.205c-0.203,0.042-0.464,0.14-0.76,0.105
					c-0.291-0.016-0.646,0-1.017-0.092c-0.351-0.121-0.781-0.201-1.146-0.438c-0.381-0.229-0.771-0.487-1.065-0.854
					c-0.34-0.338-0.558-0.763-0.783-1.18c-0.188-0.438-0.389-0.861-0.526-1.298c-0.154-0.438-0.291-0.868-0.393-1.311
					c-0.124-0.428-0.164-0.854-0.234-1.27c-0.041-0.414-0.104-0.812-0.109-1.188c-0.021-0.379-0.03-0.729-0.026-1.062
					c-0.009-1.312,0.127-2.165,0.127-2.165L635.896,655.622z"/>
			</g>
			<g display="inline">
				<path fill="#BAE6F9" d="M540.047,645.461c0,0,0.135,0.854,0.126,2.165c0.004,0.327-0.019,0.683-0.028,1.06
					c-0.009,0.389-0.072,0.773-0.112,1.188c-0.075,0.409-0.114,0.842-0.239,1.27c-0.097,0.438-0.229,0.867-0.389,1.311
					c-0.144,0.437-0.343,0.858-0.532,1.298c-0.229,0.417-0.438,0.842-0.773,1.18c-0.312,0.358-0.689,0.626-1.068,0.854
					c-0.358,0.238-0.796,0.317-1.144,0.438c-0.364,0.093-0.729,0.076-1.021,0.093c-0.294,0.023-0.553-0.064-0.756-0.106
					c-0.409-0.104-0.621-0.205-0.621-0.205V655.8c0,0,0.213-0.137,0.548-0.312c0.163-0.104,0.372-0.147,0.57-0.312
					c0.201-0.146,0.433-0.263,0.65-0.427c0.202-0.201,0.439-0.333,0.646-0.562c0.209-0.218,0.443-0.408,0.655-0.674
					c0.248-0.215,0.464-0.5,0.729-0.764c0.229-0.294,0.477-0.604,0.648-0.95c0.764-1.388,1.235-3.012,1.521-4.241
					c0.271-1.229,0.384-2.09,0.384-2.09L540.047,645.461L540.047,645.461z"/>
			</g>
			<g display="inline">
				<path fill="#BAE6F9" d="M549.654,652.559c0,0,0.135,0.855,0.126,2.166c0.004,0.327-0.009,0.688-0.021,1.062
					c-0.019,0.379-0.072,0.771-0.112,1.188c-0.075,0.409-0.115,0.852-0.24,1.271c-0.096,0.434-0.229,0.868-0.387,1.302
					c-0.146,0.438-0.343,0.866-0.532,1.298c-0.229,0.417-0.442,0.842-0.783,1.188c-0.302,0.354-0.688,0.627-1.062,0.848
					c-0.36,0.243-0.796,0.324-1.146,0.445c-0.359,0.092-0.721,0.065-1.013,0.093c-0.294,0.021-0.553-0.074-0.756-0.116
					c-0.409-0.104-0.621-0.205-0.621-0.205V662.9c0,0,0.213-0.144,0.547-0.312c0.164-0.103,0.373-0.146,0.57-0.312
					c0.197-0.146,0.431-0.271,0.646-0.435c0.202-0.2,0.449-0.333,0.652-0.562c0.21-0.225,0.442-0.412,0.655-0.675
					c0.247-0.224,0.464-0.5,0.726-0.771c0.229-0.294,0.478-0.599,0.655-0.95c0.761-1.388,1.229-3.012,1.519-4.232
					c0.277-1.232,0.386-2.097,0.386-2.097h0.197L549.654,652.559L549.654,652.559z"/>
			</g>
			<g display="inline">
				<path fill="#BAE6F9" d="M519.169,603.782c0,0,0.135,0.854,0.126,2.165c0.004,0.327-0.019,0.683-0.028,1.06
					c-0.009,0.379-0.072,0.773-0.112,1.188c-0.075,0.399-0.115,0.842-0.24,1.27c-0.096,0.438-0.229,0.867-0.387,1.301
					c-0.145,0.438-0.343,0.867-0.532,1.308c-0.229,0.416-0.438,0.842-0.773,1.18c-0.312,0.354-0.688,0.626-1.068,0.847
					c-0.356,0.244-0.795,0.324-1.144,0.445c-0.363,0.092-0.729,0.076-1.021,0.092c-0.294,0.024-0.553-0.072-0.756-0.113
					c-0.409-0.104-0.621-0.203-0.621-0.203v-0.193c0,0,0.213-0.145,0.547-0.312c0.164-0.101,0.373-0.146,0.57-0.312
					c0.201-0.146,0.431-0.271,0.65-0.433c0.196-0.195,0.439-0.334,0.646-0.562c0.21-0.218,0.444-0.412,0.655-0.674
					c0.248-0.217,0.464-0.5,0.727-0.771c0.229-0.294,0.479-0.599,0.654-0.94c0.762-1.396,1.235-3.021,1.521-4.241
					c0.271-1.234,0.383-2.09,0.383-2.09L519.169,603.782L519.169,603.782z"/>
			</g>
			<g display="inline">
				<path fill="#BAE6F9" d="M482.823,549.217c0,0,0.145,0.854,0.126,2.165c0.014,0.327-0.009,0.683-0.021,1.062
					c-0.009,0.379-0.072,0.771-0.112,1.188c-0.075,0.409-0.115,0.842-0.24,1.271c-0.096,0.433-0.229,0.857-0.387,1.301
					c-0.145,0.437-0.343,0.867-0.532,1.298c-0.229,0.417-0.438,0.842-0.783,1.18c-0.302,0.358-0.688,0.626-1.062,0.854
					c-0.36,0.241-0.795,0.314-1.146,0.438c-0.358,0.1-0.725,0.076-1.017,0.1c-0.294,0.021-0.553-0.071-0.756-0.113
					c-0.409-0.104-0.621-0.205-0.621-0.205v-0.199c0,0,0.213-0.137,0.548-0.309c0.163-0.104,0.372-0.15,0.57-0.312
					c0.201-0.144,0.431-0.263,0.646-0.427c0.202-0.201,0.449-0.333,0.652-0.562c0.21-0.223,0.444-0.409,0.655-0.679
					c0.248-0.215,0.464-0.5,0.726-0.764c0.229-0.294,0.479-0.601,0.655-0.95c0.761-1.388,1.235-3.012,1.519-4.241
					c0.277-1.229,0.392-2.09,0.392-2.09L482.823,549.217z"/>
			</g>
			<g display="inline">
				<path fill="#BAE6F9" d="M743.628,517.834c0,0,0.104,0.855,0.383,2.09c0.283,1.229,0.757,2.854,1.519,4.241
					c0.188,0.352,0.427,0.656,0.655,0.95c0.262,0.264,0.478,0.549,0.726,0.764c0.211,0.262,0.445,0.455,0.655,0.674
					c0.203,0.229,0.45,0.361,0.652,0.562c0.22,0.164,0.448,0.283,0.646,0.427c0.197,0.161,0.406,0.211,0.569,0.312
					c0.335,0.172,0.548,0.309,0.548,0.309v0.199c0,0-0.212,0.1-0.62,0.205c-0.204,0.042-0.463,0.14-0.757,0.105
					c-0.292-0.017-0.649,0-1.013-0.092c-0.354-0.121-0.782-0.202-1.146-0.438c-0.379-0.229-0.766-0.488-1.062-0.854
					c-0.346-0.338-0.562-0.763-0.783-1.18c-0.189-0.438-0.396-0.862-0.532-1.298c-0.157-0.438-0.291-0.869-0.388-1.31
					c-0.124-0.429-0.164-0.854-0.239-1.271c-0.04-0.414-0.104-0.812-0.112-1.188c-0.019-0.378-0.022-0.729-0.021-1.062
					c-0.02-1.312,0.126-2.164,0.126-2.164L743.628,517.834z"/>
			</g>
			<g display="inline">
				<path fill="#BAE6F9" d="M752.32,531.454c0,0,1.403-0.104,3.508-0.257c2.104-0.161,4.909-0.288,7.725-0.443
					c1.396-0.067,2.806-0.224,4.11-0.242c1.314,0.004,2.542,0.106,3.603,0.242c2.103,0.251,3.503,0.7,3.503,0.7v0.199
					c0,0-1.404,0.439-3.509,0.69c-1.062,0.146-2.28,0.238-3.604,0.242c-1.312-0.019-2.717-0.175-4.119-0.242
					c-2.804-0.146-5.604-0.272-7.711-0.438c-2.104-0.154-3.505-0.258-3.505-0.258V531.454L752.32,531.454z"/>
			</g>
			<g display="inline">
				<path fill="#BAE6F9" d="M713.392,573.597c0,0,1.403-0.103,3.508-0.257c2.104-0.161,4.909-0.288,7.715-0.443
					c1.402-0.062,2.812-0.224,4.12-0.232c1.314,0.004,2.542,0.104,3.593,0.232c2.104,0.261,3.503,0.7,3.503,0.7v0.199
					c0,0-1.396,0.449-3.509,0.7c-1.053,0.135-2.271,0.238-3.595,0.242c-1.314-0.021-2.717-0.186-4.119-0.242
					c-2.804-0.155-5.604-0.282-7.711-0.443c-2.104-0.146-3.505-0.257-3.505-0.257V573.597L713.392,573.597z"/>
			</g>
			<g display="inline">
				<path fill="#BAE6F9" d="M732.309,578.998c0,0,1.403-0.104,3.508-0.257c2.104-0.161,4.909-0.288,7.715-0.443
					c1.402-0.062,2.812-0.224,4.12-0.242c1.314,0.004,2.542,0.107,3.593,0.242c2.104,0.251,3.513,0.7,3.513,0.7v0.199
					c0,0-1.404,0.439-3.519,0.69c-1.053,0.145-2.271,0.238-3.595,0.242c-1.315-0.019-2.717-0.176-4.119-0.242
					c-2.804-0.146-5.604-0.272-7.711-0.438c-2.104-0.154-3.505-0.257-3.505-0.257V578.998L732.309,578.998z"/>
			</g>
		</g>
		<g id="bloc_txt_en_bas" display="none">
			
				<rect x="42.52" y="683.152" display="inline" fill="none" stroke="#000000" stroke-miterlimit="10" width="1105.512" height="85.039"/>
			<g display="inline">
				<rect x="42.52" y="683.152" fill="none" width="265.748" height="85.039"/>
				<text transform="matrix(1 0 0 1 42.5198 690.252)" font-family="'ArialMT'" font-size="10">regem superasset Antiochum. quam autem sit pulchrum exigua </text>
				<text transform="matrix(1 0 0 1 42.5198 702.252)" font-family="'ArialMT'" font-size="10">haec spernentem et minima ad ascensus verae gloriae tendere </text>
				<text transform="matrix(1 0 0 1 42.5198 714.252)" font-family="'ArialMT'" font-size="10">longos et arduos, ut memorat vates Ascraeus, Censorius Cato </text>
				<text transform="matrix(1 0 0 1 42.5198 726.252)" font-family="'ArialMT'" font-size="10">monstravit. qui interrogatus quam ob rem inter multos... </text>
				<text transform="matrix(1 0 0 1 42.5198 738.252)" font-family="'ArialMT'" font-size="10">statuam non haberet malo inquit ambigere bonos quam ob </text>
				<text transform="matrix(1 0 0 1 42.5198 750.252)" font-family="'ArialMT'" font-size="10">rem id non meruerim, quam quod est gravius cur inpetraverim </text>
				<text transform="matrix(1 0 0 1 42.5198 762.252)" font-family="'ArialMT'" font-size="10">mussitare.</text>
			</g>
			<rect x="322.441" y="683.152" display="inline" fill="none" width="265.748" height="85.039"/>
			<text transform="matrix(1 0 0 1 322.4417 690.252)" display="inline" font-family="'ArialMT'" font-size="10">Alii nullo quaerente vultus severitate adsimulata patrimonia sua </text>
			<text transform="matrix(1 0 0 1 322.4417 702.252)" display="inline" font-family="'ArialMT'" font-size="10">in inmensum extollunt, cultorum ut puta feracium multipli</text>
			<text transform="matrix(1 0 0 1 564.7258 702.252)" display="inline" font-family="'ArialMT'" font-size="10">-</text>
			<text transform="matrix(1 0 0 1 322.4417 714.252)" display="inline" font-family="'ArialMT'" font-size="10">cantes annuos fructus, quae a primo ad ultimum solem se </text>
			<text transform="matrix(1 0 0 1 322.4417 726.252)" display="inline" font-family="'ArialMT'" font-size="10">abunde iactitant possidere, ignorantes profecto maiores suos, </text>
			<text transform="matrix(1 0 0 1 322.4417 738.252)" display="inline" font-family="'ArialMT'" font-size="10">per quos ita magnitudo Romana porrigitur, non divitiis eluxisse </text>
			<text transform="matrix(1 0 0 1 322.4417 750.252)" display="inline" font-family="'ArialMT'" font-size="10">sed per bella saevissima, nec opibus nec victu nec indumento</text>
			<text transform="matrix(1 0 0 1 577.7542 750.252)" display="inline" font-family="'ArialMT'" font-size="10">-</text>
			<text transform="matrix(1 0 0 1 322.4417 762.252)" display="inline" font-family="'ArialMT'" font-size="10">rum vilitate gregariis militibus discrepantes opposita cuncta </text>
			<rect x="602.362" y="683.152" display="inline" fill="none" width="265.747" height="85.039"/>
			<text transform="matrix(1 0 0 1 602.3616 690.252)" display="inline" font-family="'ArialMT'" font-size="10">superasse virtute.</text>
			<text transform="matrix(1 0 0 1 602.3616 702.252)" display="inline" font-family="'ArialMT'" font-size="10">Constituendi autem sunt qui sint in amicitia fines et quasi </text>
			<text transform="matrix(1 0 0 1 602.3616 714.252)" display="inline" font-family="'ArialMT'" font-size="10">termini diligendi. De quibus tres video sententias ferri, quarum </text>
			<text transform="matrix(1 0 0 1 602.3616 726.252)" display="inline" font-family="'ArialMT'" font-size="10">nullam probo, unam, ut eodem modo erga amicum adfecti </text>
			<text transform="matrix(1 0 0 1 602.3616 738.252)" display="inline" font-family="'ArialMT'" font-size="10">simus, quo erga nosmet ipsos, alteram, ut nostra in amicos </text>
			<text transform="matrix(1 0 0 1 602.3616 750.252)" display="inline" font-family="'ArialMT'" font-size="10">benevolentia illorum erga nos benevolentiae pariter aequali</text>
			<text transform="matrix(1 0 0 1 851.5452 750.252)" display="inline" font-family="'ArialMT'" font-size="10">-</text>
			<text transform="matrix(1 0 0 1 602.3616 762.252)" display="inline" font-family="'ArialMT'" font-size="10">terque respondeat, tertiam, ut, quanti quisque se ipse facit, </text>
			<rect x="882.281" y="683.152" display="inline" fill="none" width="265.747" height="85.039"/>
			<text transform="matrix(1 0 0 1 882.2844 690.252)" display="inline" font-family="'ArialMT'" font-size="10">tanti fiat ab amicis.</text>
			<text transform="matrix(1 0 0 1 882.2844 714.252)" display="inline" font-family="'ArialMT'" font-size="10">Ex his quidam aeternitati se commendari posse per statuas </text>
			<text transform="matrix(1 0 0 1 882.2844 726.252)" display="inline" font-family="'ArialMT'" font-size="10">aestimantes eas ardenter adfectant quasi plus praemii de </text>
			<text transform="matrix(1 0 0 1 882.2844 738.252)" display="inline" font-family="'ArialMT'" font-size="10">figmentis aereis sensu carentibus adepturi, quam ex conscientia </text>
			<text transform="matrix(1 0 0 1 882.2844 750.252)" display="inline" font-family="'ArialMT'" font-size="10">honeste recteque factorum, easque auro curant inbracteari, </text>
			<text transform="matrix(1 0 0 1 882.2844 762.252)" display="inline" font-family="'ArialMT'" font-size="10">quod Acilio Glabrioni delatum est primo, cum consiliis armisque </text>
		</g>
		<g id="menages" display="none">
			<g display="inline">
				<path d="M1006.309,439.829c0.676-0.493,1.293-1.121,2.041-1.45c1.694-0.745,2.16-1.244,2.073-3.133
					c-0.122-2.659-0.413-5.312-0.521-7.972c-0.188-5.059-0.438-10.104-0.427-15.15c0.009-4.039,0.221-8.091,0.622-12.11
					c0.221-2.211,0.988-4.374,1.583-6.538c0.104-0.396,0.506-0.828,0.883-1.015c1.521-0.752,3.07-1.438,4.635-2.091
					c0.292-0.122,0.743-0.075,1.043,0.063c1.643,0.754,3.271,1.517,4.854,2.379c0.414,0.226,0.777,0.771,0.914,1.242
					c1.298,4.663,1.977,9.421,1.814,14.262c-0.225,7.093-0.521,14.182-0.841,21.27c-0.09,2.003-0.378,3.995-0.542,5.995
					c-0.132,1.61,0.155,2.02,1.625,2.75c0.611,0.304,1.271,0.623,1.729,1.103c0.393,0.408,0.981,1.025,0.145,1.646
					c-2.219,0-4.438,0-6.655,0c-0.392-0.105-0.773-0.212-1.104-0.3c-0.194-2.862-0.388-5.688-0.578-8.504
					c-0.199-2.938-0.411-5.865-0.584-8.811c-0.035-0.595-0.197-0.857-0.843-0.857c-2.521,0.004-2.104-0.373-2.174,2.086
					c-0.016,0.232-0.024,0.479-0.056,0.725c-0.421,4.855-0.854,9.71-1.25,14.567c-0.06,0.729-0.345,0.896-1.025,0.891
					c-2.451-0.036-4.903-0.008-7.355-0.005C1006.309,440.522,1006.309,440.175,1006.309,439.829z M1025.115,438.899
					c-1.385-1.242-1.543-1.618-1.434-3.368c0.052-0.828,0.165-1.653,0.214-2.481c0.184-3.104,0.342-6.212,0.533-9.312
					c0.047-0.766-0.21-1.067-0.998-1.03c-0.86,0.04-1.731,0.019-2.589-0.066c-0.862-0.085-1.104,0.274-1.037,1.071
					c0.369,4.859,0.713,9.72,1.09,14.578c0.017,0.215,0.269,0.58,0.423,0.587C1022.531,438.92,1023.75,438.899,1025.115,438.899z
					 M1013.781,438.783c0.044-0.271,0.085-0.465,0.106-0.665c0.251-2.334,0.521-4.665,0.74-7.002
					c0.229-2.521,0.396-5.027,0.602-7.541c0.062-0.75-0.247-1.062-1.026-1.021c-0.854,0.062-1.729,0.062-2.593-0.021
					c-0.84-0.084-1.133,0.246-1.084,1.038c0.168,2.724,0.438,5.438,0.45,8.173c0.016,2.376,1.379,5.021-1.326,7.04
					C1011.155,438.783,1012.448,438.783,1013.781,438.783z"/>
				<path d="M1018.656,389.8c1.084-0.59,1.931-1.039,2.745-1.512c0.062-0.032,0.008-0.244,0.008-0.609
					c-0.771,0.315-1.432,0.562-2.062,0.845c-2.786,1.229-5.541,2.533-8.357,3.685c-2.755,1.127-4.438-0.004-4.438-2.986
					c-0.015-4.188,0.039-8.378,0.193-12.562c0.08-2.054,1.438-3.133,3.517-3.159c1.038-0.013,2.071,0.014,3.108-0.001
					c1.547-0.023,1.896-0.622,1.493-2.136c-0.472-1.796-1.013-3.617-1.127-5.452c-0.115-1.858,0.233-3.792,1.928-5.016
					c2.396-1.724,5.438-0.579,6.265,2.31c0.646,2.276,0.438,4.51-0.367,6.726c-0.277,0.761-0.446,1.586-0.505,2.394
					c-0.062,0.81,0.358,1.255,1.272,1.206c1.104-0.059,2.225-0.012,3.324-0.002c2.234,0.021,3.54,1.239,3.548,3.448
					c0.021,3.949-0.021,7.899-0.081,11.848c-0.008,0.577-0.131,1.174-0.312,1.725c-0.626,1.882-2.026,2.707-3.888,2.027
					C1022.853,391.822,1020.882,390.799,1018.656,389.8z M1014.974,362.948c-0.859,2.337-0.563,4.477,0.038,6.584
					c0.421,1.474,1.52,2.279,2.861,2.298c1.31,0.018,2.729-0.854,3.021-2.241c0.354-1.667,0.396-3.403,0.495-5.113
					c0.021-0.396-0.227-0.809-0.37-1.289C1018.924,364.347,1016.967,364.515,1014.974,362.948z M1010.062,388.021
					c3.279-1.232,6.38-2.39,9.469-3.575c0.149-0.057,0.206-0.353,0.312-0.538c-0.204-0.045-0.438-0.178-0.607-0.121
					c-0.812,0.273-1.606,0.633-2.437,0.886c-0.322,0.099-0.771,0.115-1.062-0.032c-1.619-0.837-3.207-1.317-4.812,0.165
					c0-1.458,0.018-2.773-0.021-4.086c-0.006-0.2-0.268-0.393-0.411-0.589c-0.146,0.194-0.416,0.387-0.419,0.583
					C1010.052,383.064,1010.062,385.415,1010.062,388.021z M1025.49,388.145c0.071-0.392,0.147-0.621,0.149-0.85
					c0.017-2.077,0.038-4.154,0.009-6.23c-0.004-0.306-0.266-0.608-0.404-0.913c-0.146,0.296-0.425,0.589-0.435,0.889
					c-0.045,1.433-0.021,2.867-0.021,4.535c-1.473-1.495-2.914-2.2-4.938-1.229c0.469,0.944,0.675,2.185,1.354,2.549
					C1022.474,387.576,1024.01,387.746,1025.49,388.145z M1015.875,371.961c-0.564,1.758-0.447,2.053,1.005,2.31
					c0.638,0.113,1.312,0.094,1.966,0.015c1.771-0.22,1.959-0.582,1.222-2.385C1018.724,372.701,1017.323,372.724,1015.875,371.961z
					"/>
				<path fill="#FFFFFF" d="M1025.115,438.899c-1.366,0-2.583,0.021-3.798-0.026c-0.154-0.007-0.406-0.372-0.423-0.587
					c-0.377-4.858-0.721-9.719-1.09-14.578c-0.062-0.797,0.175-1.156,1.037-1.071c0.854,0.085,1.729,0.106,2.589,0.066
					c0.788-0.037,1.045,0.271,0.998,1.03c-0.191,3.104-0.354,6.211-0.533,9.312c-0.049,0.828-0.162,1.653-0.214,2.481
					C1023.573,437.281,1023.731,437.657,1025.115,438.899z"/>
				<path fill="#FFFFFF" d="M1013.781,438.783c-1.331,0-2.631,0-4.131,0c2.705-2.021,1.341-4.664,1.326-7.04
					c-0.019-2.729-0.282-5.449-0.45-8.173c-0.049-0.792,0.244-1.122,1.084-1.038c0.857,0.084,1.73,0.084,2.592,0.021
					c0.78-0.048,1.087,0.271,1.027,1.021c-0.199,2.514-0.371,5.021-0.604,7.541c-0.217,2.337-0.484,4.668-0.735,7.002
					C1013.865,438.318,1013.823,438.515,1013.781,438.783z"/>
				<path fill="#FFFFFF" d="M1014.974,362.948c1.992,1.566,3.949,1.399,6.055,0.239c0.146,0.479,0.396,0.893,0.37,1.289
					c-0.104,1.71-0.146,3.447-0.495,5.113c-0.292,1.388-1.721,2.259-3.028,2.241c-1.344-0.019-2.438-0.824-2.854-2.298
					C1014.406,367.425,1014.114,365.286,1014.974,362.948z"/>
				<path fill="#FFFFFF" d="M1010.062,388.021c0-2.607-0.011-4.958,0.019-7.307c0.013-0.196,0.272-0.389,0.42-0.583
					c0.146,0.196,0.404,0.389,0.41,0.589c0.037,1.313,0.021,2.628,0.021,4.086c1.604-1.482,3.188-1.002,4.812-0.165
					c0.285,0.147,0.729,0.13,1.062,0.032c0.815-0.253,1.607-0.613,2.437-0.886c0.17-0.057,0.403,0.076,0.607,0.121
					c-0.104,0.185-0.157,0.481-0.312,0.538C1016.442,385.631,1013.343,386.79,1010.062,388.021z"/>
				<path fill="#FFFFFF" d="M1025.49,388.145c-1.479-0.399-3.021-0.569-4.277-1.249c-0.687-0.365-0.893-1.605-1.354-2.549
					c2.024-0.971,3.472-0.265,4.938,1.229c0-1.668-0.023-3.103,0.021-4.535c0.01-0.3,0.28-0.593,0.434-0.889
					c0.146,0.304,0.401,0.606,0.405,0.913c0.029,2.077,0.011,4.154-0.009,6.23C1025.645,387.524,1025.568,387.753,1025.49,388.145z"
					/>
				<path fill="#FFFFFF" d="M1015.875,371.961c1.444,0.762,2.85,0.74,4.188-0.061c0.737,1.803,0.556,2.165-1.222,2.385
					c-0.646,0.08-1.328,0.098-1.966-0.015C1015.427,374.014,1015.31,373.719,1015.875,371.961z"/>
			</g>
			<g display="inline">
				<g>
					<path d="M1030.446,440.364c0.402-0.421,0.733-0.981,1.229-1.229c0.632-0.312,0.812-0.721,0.857-1.367
						c0.315-4.585,0.66-9.168,0.988-13.753c0.464-6.479,0.926-12.96,1.381-19.438c0.049-0.69,0.062-1.384,0.099-2.076
						c0.062-1.387,0.109-1.446,1.517-1.441c4.358,0.016,8.725,0.046,13.087,0.069c0.521,0.003,1.047,0.059,1.559-0.016
						c1.017-0.149,1.323,0.3,1.392,1.25c0.268,4.351,0.561,8.703,0.886,13.048c0.459,6.104,0.957,12.212,1.434,18.312
						c0.103,1.242,0.201,2.484,0.231,3.729c0.017,0.655,0.14,1.154,0.822,1.38c0.151,0.053,0.338,0.152,0.427,0.285
						c0.312,0.461,0.582,0.946,0.868,1.422c-0.45,0.092-0.901,0.26-1.354,0.264c-2.809,0.022-5.605,0.02-8.418,0.002
						c-0.229,0-0.472-0.049-0.812-0.088c-0.896-8.396-1.78-16.77-2.671-25.142c-0.117-0.002-0.236-0.004-0.354-0.007
						c-0.101,0.758-0.222,1.514-0.296,2.271c-0.714,7.271-1.432,14.531-2.105,21.8c-0.084,0.897-0.354,1.229-1.318,1.2
						c-2.799-0.08-5.604-0.021-8.396-0.039c-0.268-0.001-0.526-0.065-0.798-0.106
						C1030.602,440.581,1030.524,440.472,1030.446,440.364z"/>
					<path d="M1043.354,364.423c0-0.021-0.001-0.043-0.001-0.064c-0.861,0.04-1.723,0.11-2.583,0.108
						c-0.694-0.002-0.902,0.273-0.814,0.951c0.229,1.709,0.396,3.425,0.576,5.139c0.21,1.99,1.268,3.072,3.062,3.132
						c1.812,0.061,3.062-0.918,3.352-2.821c0.277-1.84,0.405-3.703,0.613-5.555c0.068-0.609-0.146-0.906-0.786-0.896
						C1045.629,364.436,1044.49,364.423,1043.354,364.423z M1057.106,384.552c-0.006-2.593,0.034-5.191-0.08-7.783
						c-0.104-2.226-1.093-3.102-3.308-3.125c-1.694-0.017-3.396,0.017-5.088,0.069c-0.864,0.022-1.156-0.281-1.048-1.173
						c0.271-2.301,0.479-4.613,0.676-6.919c0.062-0.698,0.172-1.242,0.938-1.545c0.685-0.263,0.875-0.812,0.178-1.327
						c-0.688-0.51-1.396-1.019-2.135-1.442c-2.146-1.236-4.332-1.511-6.553-0.16c-0.676,0.412-1.373,0.784-2.055,1.19
						c-1.021,0.601-1.03,1.208-0.174,1.991c0.34,0.309,0.644,0.795,0.712,1.236c0.35,2.323,0.584,4.669,0.922,6.993
						c0.119,0.818-0.069,1.179-0.938,1.162c-1.728-0.046-3.453-0.086-5.185-0.069c-0.961,0.006-1.854,0.098-2.557,1.03
						c-0.739,0.984-0.963,2.043-0.979,3.193c-0.03,2.695-0.051,5.391-0.021,8.086c0.02,1.934-0.017,3.88,0.188,5.792
						c0.229,2.117,1.574,2.993,3.662,2.518c0.902-0.2,1.767-0.595,2.642-0.916c3.146-1.167,6.287-2.346,9.438-3.497
						c0.63-0.229,0.772-0.515,0.504-1.156c-0.304-0.71-0.578-1.431-0.816-2.164h-0.008c-0.097-0.286-0.188-0.572-0.271-0.858
						c-0.229-0.732-0.536-0.881-1.279-0.601c-2.781,1.047-5.593,2.026-8.396,3.021c-0.401,0.143-0.827,0.212-1.42,0.36
						c0-2.546-0.014-4.921,0.021-7.296c0-0.286,0.229-0.572,0.354-0.858c0.146,0.298,0.411,0.584,0.418,0.881
						c0.047,1.437,0.021,2.867,0.021,4.47c0.604-0.527,0.969-0.944,1.421-1.225c1.479-0.927,2.904-0.435,4.351,0.195
						c0.484,0.212,1.137,0.297,1.642,0.166c1.325-0.343,2.556-0.812,4.024-0.812c2.09-0.006,3.775,0.274,5.021,2.466
						c0.06-0.446,0.087-0.572,0.087-0.698c-0.015-1.591-0.046-3.188-0.021-4.778c0.011-0.269,0.286-0.527,0.438-0.795
						c0.146,0.274,0.418,0.538,0.43,0.812c0.048,1.248,0.021,2.495,0.021,3.743v3.943c-1.967-0.521-3.758-0.99-5.729-1.511
						c0.278,0.75,0.444,1.276,0.687,1.774c0.36,0.784,0.284,1.282-0.662,1.517c-0.698,0.172-1.354,0.504-2.304,0.87
						c3.068,1.082,5.832,2.089,8.615,3.016c1.146,0.383,2.194,0.017,2.771-1.047c0.432-0.79,0.729-1.734,0.784-2.626
						C1057.176,388.632,1057.112,386.589,1057.106,384.552z"/>
					<path d="M1043.682,400.285c-2.528,0-5.059-0.023-7.585,0.014c-0.771,0.011-1.132-0.219-1.177-1.028
						c-0.062-1.105-0.202-2.207-0.353-3.306c-0.062-0.564,0.074-0.866,0.659-1.074c2.607-0.93,5.188-1.936,7.796-2.864
						c0.417-0.148,0.979-0.177,1.394-0.035c2.646,0.914,5.271,1.902,7.909,2.839c0.55,0.194,0.769,0.449,0.648,1.065
						c-0.208,1.157-0.362,2.327-0.469,3.499c-0.062,0.697-0.347,0.933-1.041,0.924c-2.604-0.032-5.195-0.013-7.792-0.013
						C1043.682,400.299,1043.682,400.292,1043.682,400.285z"/>
					<path fill="#FFFFFF" d="M1043.354,364.423c1.138,0,2.274,0.012,3.412-0.005c0.642-0.01,0.854,0.287,0.786,0.896
						c-0.208,1.852-0.336,3.715-0.613,5.555c-0.288,1.903-1.531,2.882-3.353,2.821c-1.807-0.06-2.854-1.142-3.062-3.132
						c-0.181-1.714-0.354-3.43-0.577-5.139c-0.087-0.678,0.121-0.953,0.815-0.951c0.854,0.002,1.722-0.069,2.583-0.108
						C1043.353,364.38,1043.354,364.402,1043.354,364.423z"/>
				</g>
				<path fill="#FFFFFF" d="M1052.889,384.729v3.943c-1.963-0.521-3.754-0.99-5.723-1.511l-1.116-0.624h-0.006
					c-0.104-0.286-0.188-0.572-0.274-0.858c-0.224-0.732-0.538-0.881-1.282-0.601c-2.78,1.047-5.591,2.026-8.396,3.021
					c-0.406,0.143-0.829,0.212-1.419,0.36c0-2.546-0.013-4.921,0.018-7.296c0-0.286,0.229-0.572,0.354-0.858
					c0.146,0.298,0.412,0.584,0.418,0.881c0.046,1.437,0.021,2.867,0.021,4.47c0.604-0.527,0.968-0.944,1.42-1.225
					c1.481-0.927,2.907-0.435,4.354,0.195c0.479,0.212,1.134,0.297,1.637,0.166c1.328-0.343,2.553-0.812,4.029-0.812
					c2.089-0.006,3.771,0.274,5.019,2.466c0.062-0.446,0.086-0.572,0.086-0.698c-0.012-1.591-0.046-3.188-0.021-4.778
					c0.006-0.269,0.286-0.527,0.438-0.795c0.148,0.274,0.418,0.538,0.436,0.812C1052.916,382.234,1052.889,383.482,1052.889,384.729
					z"/>
			</g>
		</g>
	</g>
	<path fill="#5C8394" d="M457.636,329.17c-0.396-0.34-0.648-0.98-0.648-1.709c0-0.518,0.13-0.98,0.34-1.337
		C457.385,327.153,457.49,328.166,457.636,329.17z"/>
	<g>
		<path fill="#F5F6F7" d="M764.551,418l-6.021-6.014l37.812-26.598c0.312-0.329,0.75-1.375,0.759-1.834v-16.136h-36.787
			c-2.665,0-5.88-1.279-7.815-3.11l-13.529-12.801l5.845-6.179l13.537,12.801c0.351,0.327,1.491,0.782,1.973,0.785h38.205
			c3.907,0,7.086,3.179,7.086,7.086v17.555c0,2.706-1.336,5.932-3.249,7.846L764.551,418z"/>
	</g>
	<g>
		<path fill="#F5F6F7" d="M183.692,395.618l-6.521-5.451l23.088-27.549c1.812-2.179,5.075-3.702,7.915-3.702H448.02
			c0.479-0.003,1.622-0.458,1.973-0.785l13.538-12.801l5.843,6.179l-13.544,12.801c-1.937,1.832-5.146,3.11-7.812,3.11h-239.85
			c-0.354,0.021-1.149,0.397-1.396,0.661L183.692,395.618z"/>
	</g>
	<g>
		
			<ellipse transform="matrix(-0.659 0.7521 -0.7521 -0.659 1491.4126 21.1454)" fill="#F5F6F7" cx="740.913" cy="348.626" rx="6.554" ry="2.985"/>
		
			<ellipse transform="matrix(-0.659 0.7521 -0.7521 -0.659 1491.4126 21.1454)" fill="#F5F6F7" cx="740.913" cy="348.626" rx="6.554" ry="2.985"/>
	</g>
	<g>
		
			<ellipse transform="matrix(0.659 0.7522 -0.7522 0.659 421.3342 -232.1205)" fill="#F5F6F7" cx="466.652" cy="348.591" rx="6.55" ry="2.986"/>
		
			<ellipse transform="matrix(0.659 0.7522 -0.7522 0.659 421.3342 -232.1205)" fill="#F5F6F7" cx="466.652" cy="348.591" rx="6.55" ry="2.986"/>
	</g>
	<path fill="#6D6F71" d="M714.06,362.489v15.485c0,1.091-0.885,1.976-1.975,1.976c-1.102,0-1.979-0.885-1.979-1.976v-15.485H714.06z
		"/>
	<path fill="#6D6F71" d="M506.139,362.489v15.485c0,1.091-0.884,1.976-1.979,1.976c-1.091,0-1.975-0.885-1.975-1.976v-15.485
		H506.139z"/>
	<path fill="#6D6F71" d="M705.239,362.489v15.485c0,1.091-0.884,1.976-1.976,1.976c-1.09,0-1.979-0.885-1.979-1.976v-15.485H705.239
		z"/>
	<path fill="#6D6F71" d="M497.319,362.489v15.485c0,1.091-0.884,1.976-1.976,1.976c-1.09,0-1.979-0.885-1.979-1.976v-15.485H497.319
		z"/>
	<path fill="#6D6F71" d="M754.133,311.588v12.09c0,1.11-0.04,2.22-0.12,3.312c-0.104,1.18-0.24,2.34-0.438,3.5
		c-0.02,0.13-0.038,0.25-0.06,0.38c-3.28,19.31-19.54,34.24-39.46,35.49c-0.896,0.06-1.79,0.08-2.69,0.08H496.064
		c-0.91,0-1.81-0.02-2.7-0.09c-20.26-1.26-36.74-16.7-39.62-36.48c-0.3-2.02-0.44-4.09-0.44-6.19v-12.09c0-1.1,0.88-1.98,1.979-1.98
		c1.08,0,1.973,0.88,1.973,1.98v12.09c0,0.83,0.027,1.64,0.077,2.45c0.062,1.03,0.173,2.04,0.312,3.04c0,0.01,0,0.01,0,0.02
		c2.646,18.57,18.5,32.94,37.71,33.29c0.239,0.01,0.47,0.01,0.72,0.01h215.312c0.229,0,0.479,0,0.711-0.01
		c19.053-0.34,34.789-14.47,37.643-32.81c0.021-0.1,0.028-0.2,0.04-0.3c0.182-1.18,0.3-2.38,0.37-3.6c0.04-0.69,0.05-1.38,0.05-2.09
		v-12.09c0-1.1,0.893-1.98,1.979-1.98h0.073C753.291,309.648,754.133,310.518,754.133,311.588z"/>
	<path fill="#6D6F71" d="M450.406,312.548c0-1.552,0-2.463,0-2.463c0-1.89,1.526-3.416,3.417-3.416c1.875,0,3.416,1.525,3.416,3.416
		v2.463v4.542C457.24,314.853,450.406,314.101,450.406,312.548z"/>
	<path fill="#6D6F71" d="M757.014,312.548c0-1.552,0-2.463,0-2.463c0-1.89-1.526-3.416-3.417-3.416
		c-1.875,0-3.415,1.525-3.415,3.416v2.463v4.542C750.182,314.853,757.014,314.101,757.014,312.548z"/>
	<g>
		<path fill="#808285" d="M492.365,274.407c-0.009,0.239-0.206,0.427-0.438,0.423c-0.273-0.005-0.567-0.007-0.898-0.007
			c-0.429,0-0.871,0.004-1.297,0.008c-0.429,0.004-0.872,0.007-1.305,0.007c-0.938,0-1.628-0.018-2.271-0.058
			c-0.116-0.007-0.225-0.062-0.302-0.148s-0.116-0.202-0.108-0.318c0.099-1.397-0.229-2.51-0.938-3.218
			c-1.236-1.236-3.417-1.334-6.146-1.334c-0.179,0-0.354,0-0.542,0c-0.186,0-0.373,0.001-0.562,0.001h-9.988v3.118
			c0,0.177-0.104,0.335-0.268,0.404c-0.189,0.08-0.398,0.089-0.562,0.089c-0.085,0-0.171-0.003-0.253-0.006
			c-0.133-0.005-0.259-0.008-0.344-0.001c-0.122,0.01-0.242-0.032-0.333-0.115s-0.146-0.2-0.146-0.322v-12.9
			c-0.021-0.501,0.354-0.581,0.435-0.592c0.023-0.004,0.062-0.006,0.099-0.003c0.078,0.006,0.198,0.003,0.322-0.001
			c0.08-0.003,0.162-0.006,0.243-0.006c0.15,0,0.356,0.01,0.552,0.093c0.158,0.07,0.259,0.227,0.259,0.4v3.186
			c0.696,0.026,1.591,0.038,2.771,0.038c0.688,0,1.397-0.004,2.098-0.008c0.668-0.003,1.298-0.007,1.888-0.007
			c0.298,0,0.562,0.001,0.802,0.003c0.021-0.373,0.009-0.969-0.001-1.336c-0.011-0.48-0.014-0.782,0.001-0.937
			c0.021-0.227,0.209-0.402,0.438-0.402h1.113c0.021-0.364,0.015-0.769,0.008-1.164c-0.003-0.168-0.006-0.34-0.007-0.511
			c-0.205,0.037-0.438,0.081-0.68,0.128c-1.072,0.209-2.427,0.471-3.594,0.471c-0.291,0-0.561-0.017-0.805-0.049
			c-0.731-0.098-1.514-0.582-1.501-1.416c0.013-0.84,0.754-1.365,1.979-1.406c0.073-0.002,0.151-0.003,0.231-0.003
			c1.426,0,3.556,0.382,4.699,0.67c0.188-0.052,0.368-0.101,0.564-0.101c0.158,0,0.318,0.031,0.49,0.095
			c1.117-0.262,3.229-0.665,4.691-0.665c0.089,0,0.176,0.001,0.258,0.004c0.337,0.013,0.824,0.069,1.227,0.267
			c0.483,0.241,0.757,0.646,0.763,1.143c0.005,0.79-0.75,1.308-1.498,1.411c-0.248,0.034-0.525,0.052-0.823,0.052
			c-1.199,0-2.572-0.273-3.675-0.492c-0.208-0.041-0.4-0.08-0.578-0.113c-0.021,0.344-0.012,0.72-0.003,1.087
			c0.003,0.195,0.007,0.394,0.007,0.591h1.062c0.188,0,0.354,0.119,0.414,0.296c0.081,0.237,0.092,0.772,0.069,1.961
			c-0.002,0.142-0.003,0.286-0.005,0.415c0.037,0,0.073,0,0.104,0c3.689,0,6.823,1.052,9.061,3.042
			C490.698,267.556,492.523,270.109,492.365,274.407z"/>
		<path fill="#FFFFFF" d="M483.721,265.725c-1.104-0.091,4.255-0.285,5.218,1.615c0.963,1.9,0.682,3.136,0.682,3.136
			S489.172,266.175,483.721,265.725z"/>
	</g>
	<g>
		<path fill="#808285" d="M525.115,247.01c-0.009,0.239-0.207,0.427-0.438,0.423c-0.273-0.005-0.567-0.007-0.898-0.007
			c-0.43,0-0.871,0.004-1.297,0.008c-0.429,0.003-0.872,0.007-1.305,0.007c-0.938,0-1.636-0.018-2.271-0.058
			c-0.116-0.007-0.224-0.061-0.302-0.148c-0.077-0.087-0.116-0.202-0.108-0.318c0.098-1.397-0.229-2.51-0.938-3.219
			c-1.236-1.236-3.417-1.334-6.146-1.334c-0.18,0-0.354,0-0.542,0c-0.186,0-0.373,0-0.562,0h-9.988v3.118
			c0,0.177-0.104,0.336-0.269,0.404c-0.188,0.08-0.398,0.09-0.562,0.09c-0.085,0-0.171-0.003-0.254-0.007
			c-0.132-0.004-0.259-0.008-0.343-0.001c-0.123,0.009-0.243-0.032-0.333-0.115s-0.146-0.2-0.146-0.322v-12.899
			c-0.021-0.501,0.354-0.581,0.435-0.592c0.023-0.005,0.062-0.006,0.099-0.003c0.078,0.006,0.198,0.003,0.322-0.002
			c0.08-0.002,0.162-0.006,0.242-0.006c0.151,0,0.357,0.011,0.552,0.093c0.157,0.071,0.26,0.228,0.26,0.401v3.185
			c0.696,0.026,1.591,0.038,2.771,0.038c0.689,0,1.403-0.003,2.104-0.008c0.668-0.004,1.298-0.007,1.89-0.007
			c0.297,0,0.562,0.001,0.801,0.003c0.02-0.373,0.006-0.969-0.001-1.336c-0.012-0.48-0.015-0.782,0.001-0.937
			c0.021-0.227,0.208-0.402,0.438-0.402h1.112c0.021-0.365,0.017-0.769,0.009-1.164c-0.003-0.168-0.007-0.34-0.007-0.511
			c-0.205,0.037-0.438,0.081-0.678,0.128c-1.077,0.209-2.429,0.471-3.596,0.471c-0.291,0-0.562-0.017-0.805-0.049
			c-0.73-0.098-1.516-0.583-1.501-1.417c0.013-0.839,0.754-1.365,1.979-1.405c0.071-0.002,0.149-0.003,0.229-0.003
			c1.426,0,3.558,0.382,4.699,0.67c0.188-0.052,0.368-0.101,0.562-0.101c0.16,0,0.319,0.03,0.492,0.095
			c1.117-0.262,3.229-0.665,4.691-0.665c0.089,0,0.176,0.002,0.258,0.005c0.338,0.012,0.824,0.068,1.226,0.267
			c0.484,0.24,0.761,0.646,0.766,1.143c0.004,0.79-0.751,1.308-1.499,1.411c-0.248,0.034-0.525,0.052-0.823,0.052
			c-1.199,0-2.572-0.273-3.675-0.492c-0.208-0.041-0.4-0.08-0.578-0.113c-0.021,0.344-0.012,0.72-0.003,1.087
			c0.004,0.194,0.008,0.393,0.008,0.591h1.062c0.188,0,0.354,0.119,0.413,0.296c0.079,0.237,0.093,0.772,0.069,1.961
			c-0.002,0.143-0.004,0.287-0.005,0.416c0.036,0,0.073,0,0.104,0c3.688,0,6.821,1.052,9.06,3.042
			C523.448,240.16,525.268,242.712,525.115,247.01z"/>
		<path fill="#FFFFFF" d="M516.467,238.329c-1.104-0.091,4.255-0.285,5.218,1.614c0.963,1.9,0.682,3.136,0.682,3.136
			S521.916,238.778,516.467,238.329z"/>
	</g>
	<g>
		<path fill="#808285" d="M557.859,219.707c-0.008,0.239-0.207,0.427-0.445,0.423c-0.271-0.004-0.562-0.007-0.896-0.007
			c-0.429,0-0.871,0.004-1.297,0.008c-0.438,0.003-0.872,0.007-1.312,0.007c-0.929,0-1.629-0.018-2.269-0.058
			c-0.116-0.007-0.227-0.061-0.302-0.148c-0.077-0.087-0.116-0.202-0.108-0.318c0.09-1.398-0.231-2.51-0.94-3.219
			c-1.231-1.236-3.416-1.334-6.144-1.334c-0.18,0-0.354,0-0.542,0.001c-0.185,0-0.373,0-0.562,0h-9.988v3.118
			c0,0.176-0.104,0.335-0.271,0.404c-0.188,0.079-0.396,0.089-0.562,0.089c-0.085,0-0.171-0.003-0.254-0.006
			c-0.132-0.005-0.259-0.008-0.344-0.001c-0.122,0.01-0.242-0.032-0.334-0.115c-0.094-0.083-0.146-0.2-0.146-0.322V205.33
			c-0.021-0.501,0.354-0.581,0.428-0.592c0.03-0.005,0.062-0.006,0.104-0.003c0.078,0.006,0.197,0.003,0.322-0.001
			c0.074-0.003,0.156-0.006,0.234-0.006c0.158,0,0.365,0.01,0.56,0.093c0.149,0.071,0.259,0.228,0.259,0.4v3.186
			c0.692,0.026,1.591,0.038,2.767,0.038c0.693,0,1.408-0.003,2.104-0.008c0.668-0.004,1.298-0.007,1.888-0.007
			c0.296,0,0.562,0.001,0.799,0.003c0.021-0.373,0.005-0.969-0.001-1.336c-0.007-0.48-0.011-0.782,0.002-0.937
			c0.021-0.228,0.209-0.403,0.438-0.403h1.104c0.021-0.364,0.021-0.769,0.017-1.163c-0.003-0.168-0.012-0.34-0.017-0.511
			c-0.197,0.037-0.431,0.081-0.672,0.128c-1.081,0.209-2.426,0.471-3.593,0.471c-0.291,0-0.562-0.017-0.805-0.049
			c-0.731-0.098-1.521-0.583-1.501-1.416c0.013-0.84,0.754-1.366,1.979-1.406c0.075-0.002,0.152-0.003,0.233-0.003
			c1.426,0,3.556,0.382,4.697,0.67c0.188-0.052,0.361-0.101,0.563-0.101c0.162,0,0.321,0.03,0.493,0.095
			c1.116-0.262,3.222-0.665,4.688-0.665c0.092,0,0.181,0.001,0.261,0.004c0.339,0.013,0.82,0.069,1.227,0.268
			c0.484,0.24,0.753,0.646,0.756,1.143c0.006,0.79-0.75,1.308-1.499,1.411c-0.245,0.034-0.521,0.052-0.815,0.052
			c-1.198,0-2.57-0.272-3.683-0.492c-0.206-0.042-0.396-0.08-0.573-0.113c-0.021,0.344-0.016,0.72-0.009,1.087
			c0.009,0.195,0.017,0.394,0.017,0.59h1.062c0.188,0,0.354,0.119,0.415,0.296c0.082,0.237,0.088,0.773,0.073,1.961
			c-0.002,0.143-0.003,0.287-0.005,0.416c0.034,0,0.065,0,0.104,0c3.695,0,6.826,1.052,9.062,3.042
			C556.195,212.856,558.012,215.409,557.859,219.707z"/>
		<path fill="#FFFFFF" d="M549.211,211.025c-1.104-0.091,4.255-0.286,5.218,1.614s0.682,3.136,0.682,3.136
			S554.656,211.476,549.211,211.025z"/>
	</g>
	<g>
		<path fill="#808285" d="M642.853,246.076c0.008,0.239,0.206,0.427,0.445,0.423c0.271-0.005,0.562-0.007,0.896-0.007
			c0.438,0,0.871,0.004,1.297,0.008c0.438,0.004,0.872,0.008,1.312,0.008c0.93,0,1.629-0.018,2.269-0.058
			c0.116-0.007,0.229-0.06,0.306-0.148c0.073-0.087,0.113-0.202,0.104-0.318c-0.09-1.397,0.237-2.51,0.945-3.218
			c1.229-1.236,3.417-1.334,6.139-1.334c0.18,0,0.36,0,0.542,0c0.188,0,0.372,0.001,0.562,0.001h9.986v3.118
			c0,0.177,0.106,0.336,0.271,0.404c0.188,0.079,0.396,0.09,0.562,0.09c0.084,0,0.171-0.004,0.253-0.007
			c0.133-0.005,0.261-0.008,0.346-0.001c0.121,0.01,0.24-0.032,0.334-0.115c0.096-0.083,0.146-0.2,0.146-0.322v-12.9
			c0.021-0.501-0.354-0.581-0.428-0.592c-0.03-0.004-0.063-0.006-0.104-0.003c-0.078,0.006-0.192,0.003-0.317-0.001
			c-0.076-0.003-0.157-0.006-0.238-0.006c-0.159,0-0.366,0.011-0.558,0.093c-0.152,0.07-0.263,0.228-0.263,0.4v3.186
			c-0.691,0.026-1.592,0.038-2.767,0.038c-0.692,0-1.407-0.004-2.104-0.008c-0.668-0.004-1.299-0.007-1.889-0.007
			c-0.296,0-0.562,0-0.799,0.003c-0.021-0.373-0.005-0.969,0.001-1.336c0.007-0.48,0.011-0.783-0.002-0.938
			c-0.021-0.227-0.209-0.402-0.438-0.402h-1.105c-0.021-0.364-0.021-0.769-0.016-1.164c0.005-0.168,0.012-0.34,0.016-0.511
			c0.2,0.038,0.433,0.081,0.674,0.128c1.079,0.209,2.426,0.47,3.593,0.47c0.291,0,0.562-0.016,0.809-0.049
			c0.729-0.098,1.521-0.582,1.5-1.416c-0.016-0.84-0.756-1.365-1.979-1.406c-0.075-0.002-0.152-0.003-0.231-0.003
			c-1.428,0-3.557,0.382-4.694,0.67c-0.188-0.052-0.364-0.101-0.567-0.101c-0.162,0-0.319,0.031-0.492,0.095
			c-1.116-0.262-3.222-0.665-4.688-0.665c-0.091,0-0.179,0.001-0.261,0.004c-0.337,0.013-0.818,0.069-1.227,0.267
			c-0.482,0.241-0.753,0.646-0.756,1.143c-0.005,0.79,0.75,1.308,1.499,1.411c0.247,0.035,0.521,0.052,0.817,0.052
			c1.196,0,2.569-0.273,3.681-0.492c0.207-0.041,0.396-0.08,0.575-0.113c0.021,0.344,0.013,0.72,0.005,1.087
			c-0.005,0.195-0.013,0.394-0.013,0.591h-1.062c-0.188,0-0.354,0.119-0.415,0.296c-0.082,0.237-0.088,0.772-0.07,1.961
			c0.003,0.142,0.003,0.286,0.005,0.416c-0.031,0-0.066,0-0.104,0c-3.692,0-6.825,1.052-9.062,3.042
			C644.517,239.226,642.698,241.778,642.853,246.076z"/>
		<path fill="#FFFFFF" d="M651.5,237.395c1.102-0.091-4.263-0.286-5.227,1.614c-0.963,1.899-0.682,3.136-0.682,3.136
			S646.052,237.845,651.5,237.395z"/>
	</g>
	<g>
		<path fill="#808285" d="M676.019,272.925c0.008,0.239,0.206,0.427,0.445,0.423c0.271-0.005,0.562-0.007,0.896-0.007
			c0.43,0,0.871,0.004,1.298,0.007c0.438,0.004,0.872,0.008,1.312,0.008c0.93,0,1.629-0.018,2.269-0.058
			c0.116-0.007,0.229-0.061,0.303-0.148c0.076-0.087,0.116-0.202,0.107-0.318c-0.09-1.397,0.236-2.51,0.945-3.218
			c1.229-1.236,3.416-1.334,6.14-1.334c0.179,0,0.356,0,0.541,0s0.372,0.001,0.562,0.001h9.983v3.118
			c0,0.177,0.106,0.336,0.271,0.404c0.188,0.08,0.396,0.09,0.562,0.09c0.085,0,0.171-0.004,0.254-0.006
			c0.134-0.005,0.262-0.009,0.349-0.002c0.119,0.01,0.236-0.032,0.331-0.115c0.096-0.083,0.146-0.2,0.146-0.322v-12.899
			c0.021-0.501-0.354-0.581-0.426-0.592c-0.032-0.004-0.065-0.006-0.104-0.003c-0.079,0.006-0.189,0.003-0.314-0.001
			c-0.078-0.003-0.16-0.006-0.242-0.006c-0.159,0-0.365,0.011-0.557,0.093c-0.152,0.07-0.264,0.228-0.264,0.4v3.186
			c-0.689,0.026-1.591,0.038-2.767,0.038c-0.692,0-1.407-0.004-2.104-0.008c-0.668-0.004-1.299-0.007-1.888-0.007
			c-0.297,0-0.562,0.001-0.8,0.003c-0.021-0.373-0.005-0.969,0.001-1.336c0.008-0.48,0.011-0.783-0.002-0.938
			c-0.021-0.227-0.209-0.402-0.438-0.402h-1.104c-0.021-0.364-0.021-0.769-0.018-1.164c0.01-0.168,0.017-0.34,0.018-0.511
			c0.201,0.038,0.431,0.081,0.672,0.128c1.08,0.209,2.426,0.47,3.593,0.47c0.291,0,0.562-0.016,0.807-0.049
			c0.729-0.098,1.521-0.582,1.502-1.416c-0.015-0.84-0.756-1.365-1.979-1.406c-0.074-0.002-0.151-0.003-0.231-0.003
			c-1.428,0-3.557,0.382-4.693,0.67c-0.188-0.052-0.365-0.101-0.568-0.101c-0.161,0-0.318,0.03-0.492,0.095
			c-1.115-0.262-3.222-0.665-4.688-0.665c-0.092,0-0.179,0.001-0.261,0.004c-0.339,0.013-0.819,0.069-1.227,0.267
			c-0.482,0.241-0.754,0.646-0.757,1.143c-0.005,0.79,0.75,1.308,1.499,1.411c0.247,0.035,0.521,0.052,0.819,0.052
			c1.194,0,2.566-0.273,3.679-0.492c0.206-0.041,0.396-0.08,0.573-0.113c0.021,0.344,0.015,0.72,0.008,1.087
			c-0.008,0.195-0.015,0.394-0.015,0.591h-1.062c-0.188,0-0.354,0.119-0.415,0.296c-0.082,0.237-0.088,0.772-0.072,1.961
			c0.003,0.142,0.006,0.286,0.006,0.416c-0.032,0-0.064,0-0.104,0c-3.694,0-6.826,1.052-9.062,3.042
			C677.683,266.075,675.865,268.627,676.019,272.925z"/>
		<path fill="#FFFFFF" d="M684.666,264.244c1.103-0.091-4.263-0.286-5.227,1.614c-0.963,1.9-0.681,3.136-0.681,3.136
			S679.218,264.694,684.666,264.244z"/>
	</g>
	<text transform="matrix(1 0 0 1 678.0559 241.5127)" fill="#FFFFFF" font-family="'ArialMT'" font-size="8">Investissement public</text>
	<text transform="matrix(1 0 0 1 711.2219 267.4912)" fill="#FFFFFF" font-family="'ArialMT'" font-size="8">Consommation FInale des mnages</text>
	
		<text transform="matrix(1 0 0 1 711.2219 267.4912)" fill="none" stroke="#F5F6F7" stroke-miterlimit="10" font-family="'ArialMT'" font-size="8">Consommation FInale des mnages</text>
	<text transform="matrix(1 0 0 1 439.1292 215.709)" fill="#FFFFFF" font-family="'ArialMT'" font-size="8">Balance commercialE</text>
	<text transform="matrix(1 0 0 1 379.7581 268.8193)" fill="#FFFFFF" font-family="'ArialMT'" font-size="8">Investissement priv</text>
	
		<text transform="matrix(1 0 0 1 379.7581 268.8193)" fill="none" stroke="#F5F6F7" stroke-miterlimit="10" font-family="'ArialMT'" font-size="8">Investissement priv</text>
	<g id="format">
	</g>
	<g id="Calque_1_1_">
	</g>
	<g>
		<path fill="none" stroke="#F5F6F7" stroke-width="11.339" stroke-miterlimit="10" d="M677.75,687.093l451.863,0.002
			c6.236,0,11.346-5.103,11.346-11.339V250.007c0-6.236-5.104-11.339-11.346-11.339H669.013"/>
	</g>
	<g>
		<path fill="none" stroke="#F5F6F7" stroke-width="11.339" stroke-miterlimit="10" d="M718.102,642.281l329.398-0.001
			c6.23,0,11.34-5.104,11.34-11.339V483.822"/>
	</g>
	<g>
		<path fill="none" stroke="#F5F6F7" stroke-width="11.339" stroke-miterlimit="10" d="M765,595.486l231.067-0.047
			c6.236-0.001,11.339-5.104,11.339-11.348v-100.27"/>
	</g>
	<g>
		<path fill="none" stroke="#F5F6F7" stroke-width="11.339" stroke-miterlimit="10" d="M875.103,394.505v145.808
			c0,6.236-5.103,11.346-11.339,11.346h-59.987"/>
	</g>
	<g>
		<path fill="none" stroke="#F5F6F7" stroke-width="11.339" stroke-miterlimit="10" d="M373.73,420.747v-14.904
			c0-6.236,5.103-11.338,11.338-11.338h490.035"/>
	</g>
	<g>
		
			<line fill="none" stroke="#F5F6F7" stroke-width="11.339" stroke-miterlimit="10" x1="875.103" y1="394.505" x2="962.666" y2="394.504"/>
	</g>
	<g>
		<path fill="none" stroke="#F5F6F7" stroke-width="11.339" stroke-miterlimit="10" d="M1029.666,372.167V275.53
			c0-6.236-5.104-11.338-11.346-11.338h-316.5"/>
	</g>
	<g>
		<path fill="none" stroke="#F5F6F7" stroke-width="11.339" stroke-miterlimit="10" d="M133.638,372.407v-95.396
			c0-6.236,5.104-11.338,11.338-11.338h321.724"/>
	</g>
	<g>
		<path fill="none" stroke="#F5F6F7" stroke-width="11.339" stroke-miterlimit="10" d="M105.321,372.406V250.553
			c0-6.236,5.104-11.338,11.345-11.338h383.43"/>
	</g>
	<g>
		
			<line fill="none" stroke="#F5F6F7" stroke-width="11.339" stroke-miterlimit="10" x1="183.5" y1="465.506" x2="336.515" y2="465.506"/>
	</g>
	<g>
		<path fill="none" stroke="#F5F6F7" stroke-width="11.339" stroke-miterlimit="10" d="M465.515,629.899H126.641
			c-6.236,0-11.338-5.104-11.338-11.346V485.792"/>
	</g>
	<g>
		<path fill="none" stroke="#F5F6F7" stroke-width="11.339" stroke-miterlimit="10" d="M520.567,686.547H87.414
			c-6.236,0-11.338-5.103-11.338-11.339v-451.11c0-6.236,5.103-11.339,11.338-11.339h443.737"/>
	</g>
	<g>
		<path fill="none" stroke="#F5F6F7" stroke-width="11.339" stroke-miterlimit="10" d="M419.849,576.826h-34.781
			c-6.236,0-11.338-5.104-11.338-11.339v-65.314"/>
	</g>
	<g>
		<path fill="none" stroke="#F5F6F7" stroke-width="11.339" stroke-miterlimit="10" d="M485.5,539.298v26.189
			c0,6.229-5.104,11.339-11.345,11.339l-38.147,0.001"/>
	</g>
	<g>
		<path fill="none" stroke="#F5F6F7" stroke-width="11.339" stroke-miterlimit="10" d="M527.936,539.297v79.271
			c0,6.229-5.104,11.339-11.338,11.339h-29.823"/>
	</g>
	<g>
		<path fill="none" stroke="#F5F6F7" stroke-width="11.339" stroke-miterlimit="10" d="M570.365,539.297v135.911
			c0,6.236-5.103,11.339-11.338,11.339H537.68"/>
	</g>
	<g>
		<path fill="none" stroke="#F5F6F7" stroke-width="11.339" stroke-miterlimit="10" d="M612.802,539.581V675.48
			c0,6.23,5.103,11.34,11.339,11.34h45.727"/>
	</g>
	<g>
		<path fill="none" stroke="#F5F6F7" stroke-width="11.339" stroke-miterlimit="10" d="M655.235,539.297v91.646
			c0,6.229,5.104,11.339,11.339,11.339h41.945"/>
	</g>
	<g>
		<path fill="none" stroke="#F5F6F7" stroke-width="11.339" stroke-miterlimit="10" d="M697.67,539.297v44.802
			c0,6.236,5.103,11.339,11.339,11.339h31.095"/>
	</g>
	<g>
		<path fill="none" stroke="#F5F6F7" stroke-width="11.339" stroke-miterlimit="10" d="M740.104,539.297c0,0,0,2.78,0,6.178
			c0,3.398,5.104,6.186,11.339,6.186h27.995"/>
	</g>
	<path fill="#F5F6F7" stroke="#F5F6F7" stroke-width="2.8347" stroke-miterlimit="10" d="M487.428,466.664
		c-0.043-6.611-3.812-6.611-3.855,0c0.149,13.67-1.942,58.971-2.324,72.588c2.83,0.578,5.676,0.578,8.506,0
		C489.371,525.637,487.279,480.334,487.428,466.664z"/>
	<path fill="#F5F6F7" stroke="#F5F6F7" stroke-width="2.8347" stroke-miterlimit="10" d="M529.863,466.664
		c-0.043-6.611-3.812-6.611-3.854,0c0.147,13.67-1.945,58.971-2.324,72.588c2.83,0.578,5.673,0.578,8.503,0
		C531.809,525.637,529.714,480.334,529.863,466.664z"/>
	<path fill="#F5F6F7" stroke="#F5F6F7" stroke-width="2.8347" stroke-miterlimit="10" d="M572.297,466.664
		c-0.043-6.611-3.812-6.611-3.855,0c0.15,13.67-1.945,58.971-2.324,72.588c2.831,0.578,5.677,0.578,8.503,0
		C574.24,525.637,572.147,480.334,572.297,466.664z"/>
	<path fill="#F5F6F7" stroke="#F5F6F7" stroke-width="2.8347" stroke-miterlimit="10" d="M614.73,466.664
		c-0.044-6.611-3.812-6.611-3.854,0c0.148,13.67-1.943,58.971-2.322,72.588c2.831,0.578,5.674,0.578,8.503,0
		C616.675,525.637,614.577,480.334,614.73,466.664z"/>
	<path fill="#F5F6F7" stroke="#F5F6F7" stroke-width="2.8347" stroke-miterlimit="10" d="M657.161,466.664
		c-0.044-6.611-3.812-6.611-3.854,0c0.147,13.67-1.945,58.971-2.325,72.588c2.831,0.578,5.675,0.578,8.504,0
		C659.109,525.637,657.014,480.334,657.161,466.664z"/>
	<path fill="#F5F6F7" stroke="#F5F6F7" stroke-width="2.8347" stroke-miterlimit="10" d="M699.598,466.664
		c-0.044-6.611-3.812-6.611-3.855,0c0.149,13.67-1.942,58.971-2.321,72.588c2.83,0.578,5.674,0.578,8.503,0
		C701.543,525.637,699.448,480.334,699.598,466.664z"/>
	<path fill="#F5F6F7" stroke="#F5F6F7" stroke-width="2.8347" stroke-miterlimit="10" d="M742.031,466.664
		c-0.043-6.611-3.812-6.611-3.854,0c0.147,13.67-1.945,58.971-2.324,72.588c2.83,0.578,5.674,0.578,8.504,0
		C743.977,525.637,741.881,480.334,742.031,466.664z"/>
</g>
</svg>
